<svg preserveAspectRatio="none" width="100%" height="100%" overflow="visible" style="display: block;" viewBox="0 0 12 12" fill="none" xmlns="http://www.w3.org/2000/svg">
<g id="SVG">
<path id="Vector" fill-rule="evenodd" clip-rule="evenodd" d="M2.50012 5.66675C2.72956 5.66675 2.92955 5.82289 2.9852 6.04548L3.31244 7.35441L4.62139 7.68168C4.84398 7.73735 5.00012 7.93728 5.00012 8.16675C5.00012 8.39621 4.84398 8.59615 4.62139 8.65181L3.31244 8.97908L2.9852 10.288C2.92955 10.5106 2.72956 10.6667 2.50012 10.6667C2.27069 10.6667 2.0707 10.5106 2.01505 10.288L1.68781 8.97908L0.378855 8.65181C0.156269 8.59615 0.00012207 8.39621 0.00012207 8.16675C0.00012207 7.93728 0.156269 7.73735 0.378855 7.68168L1.68781 7.35441L2.01505 6.04548C2.0707 5.82289 2.27069 5.66675 2.50012 5.66675Z" fill="var(--fill-0, #08090A)"/>
<path id="Vector_2" fill-rule="evenodd" clip-rule="evenodd" d="M6.83346 0C7.03859 0 7.22299 0.125333 7.29839 0.31612L8.16346 2.50337L10.3507 3.36837C10.5415 3.44383 10.6668 3.62817 10.6668 3.83333C10.6668 4.0385 10.5415 4.22284 10.3507 4.29829L8.16346 5.16329L7.29839 7.35053C7.22299 7.54133 7.03859 7.66667 6.83346 7.66667C6.62832 7.66667 6.44392 7.54133 6.36852 7.35053L5.50349 5.16329L3.31624 4.29829C3.12546 4.22284 3.00012 4.0385 3.00012 3.83333C3.00012 3.62817 3.12546 3.44383 3.31624 3.36837L5.50349 2.50337L6.36852 0.31612C6.44392 0.125333 6.62832 0 6.83346 0Z" fill="var(--fill-0, #08090A)"/>
</g>
</svg>
