<svg preserveAspectRatio="none" width="100%" height="100%" overflow="visible" style="display: block;" viewBox="0 0 8.8012 9.7606" fill="none" xmlns="http://www.w3.org/2000/svg">
<g id="Group">
<path id="Vector" d="M0.463235 4.58419L4.1975 0.849935C4.7131 0.334335 5.54905 0.334335 6.06459 0.849935C6.5802 1.36552 6.5802 2.20146 6.06459 2.71706L3.24448 5.53721" stroke="var(--stroke-0, #08090A)" stroke-width="0.926471" stroke-linecap="round"/>
<path id="Vector_2" d="M3.28343 5.49886L6.06465 2.71761C6.58027 2.20201 7.41619 2.20201 7.9318 2.71761L7.95126 2.73706C8.46687 3.25265 8.46687 4.08859 7.95126 4.60418L4.57396 7.98153C4.40209 8.15336 4.40209 8.43198 4.57396 8.60381L5.26743 9.29737" stroke="var(--stroke-0, #08090A)" stroke-width="0.926471" stroke-linecap="round"/>
<path id="Vector_3" d="M5.13115 1.78379L2.36934 4.54559C1.85375 5.06117 1.85375 5.89712 2.36934 6.41273C2.88493 6.92828 3.72087 6.92828 4.23647 6.41273L6.99826 3.65092" stroke="var(--stroke-0, #08090A)" stroke-width="0.926471" stroke-linecap="round"/>
</g>
</svg>
