<svg preserveAspectRatio="none" width="100%" height="100%" overflow="visible" style="display: block;" viewBox="0 0 14 14" fill="none" xmlns="http://www.w3.org/2000/svg">
<g id="SVG">
<path id="Vector" fill-rule="evenodd" clip-rule="evenodd" d="M2.91667 6.61111C3.18434 6.61111 3.41766 6.79328 3.48259 7.05297L3.86437 8.58006L5.39148 8.96187C5.65116 9.02681 5.83333 9.26007 5.83333 9.52778C5.83333 9.79549 5.65116 10.0287 5.39148 10.0937L3.86437 10.4755L3.48259 12.0026C3.41766 12.2623 3.18434 12.4444 2.91667 12.4444C2.64899 12.4444 2.41567 12.2623 2.35075 12.0026L1.96897 10.4755L0.441856 10.0937C0.182171 10.0287 0 9.79549 0 9.52778C0 9.26007 0.182171 9.02681 0.441856 8.96187L1.96897 8.58006L2.35075 7.05297C2.41567 6.79328 2.64899 6.61111 2.91667 6.61111Z" fill="var(--fill-0, #18E299)"/>
<path id="Vector_2" fill-rule="evenodd" clip-rule="evenodd" d="M7.97222 0C8.21154 0 8.42668 0.146222 8.51464 0.368807L9.52389 2.9206L12.0756 3.92977C12.2982 4.0178 12.4444 4.23286 12.4444 4.47222C12.4444 4.71158 12.2982 4.92665 12.0756 5.01468L9.52389 6.02384L8.51464 8.57562C8.42668 8.79822 8.21154 8.94444 7.97222 8.94444C7.7329 8.94444 7.51777 8.79822 7.4298 8.57562L6.42059 6.02384L3.86881 5.01468C3.64622 4.92665 3.5 4.71158 3.5 4.47222C3.5 4.23286 3.64622 4.0178 3.86881 3.92977L6.42059 2.9206L7.4298 0.368807C7.51777 0.146222 7.7329 0 7.97222 0Z" fill="var(--fill-0, #18E299)"/>
</g>
</svg>
