<svg preserveAspectRatio="none" width="100%" height="100%" overflow="visible" style="display: block;" viewBox="0 0 11.7348 13.0138" fill="none" xmlns="http://www.w3.org/2000/svg">
<g id="Group">
<path id="Vector" d="M0.617647 6.11226L5.59667 1.13325C6.28414 0.445781 7.39873 0.445781 8.08612 1.13325C8.7736 1.8207 8.7736 2.93529 8.08612 3.62275L4.32598 7.38295" stroke="var(--stroke-0, #08090A)" stroke-width="1.23529" stroke-linecap="round"/>
<path id="Vector_2" d="M4.37782 7.33147L8.08612 3.62313C8.7736 2.93567 9.88817 2.93567 10.5757 3.62313L10.6016 3.64906C11.2891 4.33652 11.2891 5.45111 10.6016 6.13857L6.09852 10.6417C5.86937 10.8708 5.86937 11.2423 6.09852 11.4714L7.02316 12.3961" stroke="var(--stroke-0, #08090A)" stroke-width="1.23529" stroke-linecap="round"/>
<path id="Vector_3" d="M6.8414 2.3781L3.15899 6.0605C2.47154 6.74794 2.47154 7.86254 3.15899 8.55002C3.84645 9.23742 4.96104 9.23742 5.64851 8.55002L9.33088 4.86761" stroke="var(--stroke-0, #08090A)" stroke-width="1.23529" stroke-linecap="round"/>
</g>
</svg>
