<svg preserveAspectRatio="none" width="100%" height="100%" overflow="visible" style="display: block;" viewBox="0 0 375.66 241.081" fill="none" xmlns="http://www.w3.org/2000/svg">
<g id="689208d54ab87177abc5e228_Graphics%202.svg">
<path id="Vector" d="M340.805 8.71376H43.5688C39.8258 8.71376 36.7914 11.7481 36.7914 15.4911V44.537C36.7914 48.2801 39.8258 51.3144 43.5688 51.3144H340.805C344.548 51.3144 347.582 48.2801 347.582 44.537V15.4911C347.582 11.7481 344.548 8.71376 340.805 8.71376Z" fill="var(--fill-0, #D9D9D9)"/>
<path id="Vector_2" d="M340.805 8.71376H43.5688C39.8258 8.71376 36.7914 11.7481 36.7914 15.4911V44.537C36.7914 48.2801 39.8258 51.3144 43.5688 51.3144H340.805C344.548 51.3144 347.582 48.2801 347.582 44.537V15.4911C347.582 11.7481 344.548 8.71376 340.805 8.71376Z" fill="url(#paint0_radial_1691_2324)"/>
<g id="Group" filter="url(#filter0_ddi_1691_2324)">
<path id="Vector_3" d="M338.869 119.088H45.5052C40.6927 119.088 36.7914 122.989 36.7914 127.802V152.975C36.7914 157.787 40.6927 161.689 45.5052 161.689H338.869C343.681 161.689 347.582 157.787 347.582 152.975V127.802C347.582 122.989 343.681 119.088 338.869 119.088Z" fill="url(#paint1_linear_1691_2324)"/>
<path id="Vector_4" d="M338.868 119.647H45.5053C41.0012 119.647 37.35 123.298 37.35 127.802V152.975C37.35 157.479 41.0012 161.13 45.5053 161.13H338.868C343.372 161.13 347.024 157.479 347.024 152.975V127.802C347.024 123.298 343.372 119.647 338.868 119.647Z" stroke="var(--stroke-0, #373737)" stroke-width="1.11701"/>
</g>
<g id="Group_2" filter="url(#filter1_ddi_1691_2324)">
<path id="Vector_5" d="M300.141 174.275H45.5052C40.6927 174.275 36.7914 178.177 36.7914 182.989V208.162C36.7914 212.975 40.6927 216.876 45.5052 216.876H300.141C304.953 216.876 308.854 212.975 308.854 208.162V182.989C308.854 178.177 304.953 174.275 300.141 174.275Z" fill="url(#paint2_linear_1691_2324)"/>
<path id="Vector_6" d="M300.14 174.834H45.5053C41.0012 174.834 37.35 178.485 37.35 182.989V208.162C37.35 212.666 41.0012 216.318 45.5053 216.318H300.14C304.644 216.318 308.296 212.666 308.296 208.162V182.989C308.296 178.485 304.644 174.834 300.14 174.834Z" stroke="var(--stroke-0, #373737)" stroke-width="1.11701"/>
</g>
<g id="Group_3" filter="url(#filter2_ddi_1691_2324)">
<path id="Vector_7" d="M249.795 63.9009H45.5052C40.6927 63.9009 36.7914 67.8022 36.7914 72.6147V97.7878C36.7914 102.6 40.6927 106.502 45.5052 106.502H249.795C254.607 106.502 258.508 102.6 258.508 97.7878V72.6147C258.508 67.8022 254.607 63.9009 249.795 63.9009Z" fill="url(#paint3_linear_1691_2324)"/>
<path id="Vector_8" d="M249.794 64.4595H45.5053C41.0012 64.4595 37.35 68.1107 37.35 72.6147V97.7878C37.35 102.292 41.0012 105.943 45.5053 105.943H249.794C254.298 105.943 257.95 102.292 257.95 97.7878V72.6147C257.95 68.1107 254.298 64.4595 249.794 64.4595Z" stroke="var(--stroke-0, #373737)" stroke-width="1.11701"/>
</g>
<path id="Vector_9" d="M78.6861 26.6351V27.9214H73.7386V30.4941H78.2903V31.7805H73.7386V34.5369H78.6861V35.8232H72.3816V26.6351H78.6861ZM80.0013 25.9283H81.3724V35.8232H80.0013V25.9283ZM82.676 32.2611C82.676 31.5071 82.8126 30.8616 83.0859 30.3245C83.3592 29.7779 83.7456 29.3585 84.245 29.0664C84.7539 28.7648 85.3523 28.6141 86.0403 28.6141C86.7093 28.6141 87.2983 28.7696 87.8072 29.0805C88.3161 29.3821 88.7166 29.8015 89.0088 30.3386C89.3103 30.8758 89.4611 31.493 89.4611 32.1904V32.6286H83.9623V31.625H87.991C87.9345 31.0406 87.7318 30.5742 87.3832 30.2255C87.0344 29.8769 86.5916 29.7025 86.0544 29.7025C85.4136 29.7025 84.9236 29.9145 84.5843 30.3386C84.2544 30.7533 84.0896 31.394 84.0896 32.2611C84.0896 33.0903 84.2638 33.7218 84.6126 34.1552C84.9612 34.5793 85.4701 34.7913 86.1392 34.7913C86.6386 34.7913 87.0392 34.6783 87.3408 34.4521C87.6517 34.2259 87.8449 33.9197 87.9203 33.5333H89.3763C89.2349 34.3249 88.8862 34.9233 88.3303 35.3285C87.7836 35.7337 87.0486 35.9363 86.1251 35.9363C85.4183 35.9363 84.8057 35.7902 84.2875 35.4981C83.7786 35.1965 83.3828 34.7725 83.1001 34.2259C82.8174 33.6699 82.676 33.015 82.676 32.2611ZM90.4862 28.7554H91.9422L93.9495 34.4238L95.9002 28.7554H97.3705L94.7128 35.8232H93.1437L90.4862 28.7554ZM104.52 33.7312C104.52 34.1646 104.539 34.5652 104.577 34.9327C104.623 35.2908 104.685 35.5877 104.76 35.8232H103.361C103.295 35.5782 103.243 35.305 103.205 35.0034C103.177 34.6924 103.163 34.3673 103.163 34.028V31.0454C103.163 30.791 103.088 30.56 102.937 30.3527C102.795 30.1455 102.602 29.9805 102.357 29.858C102.121 29.7355 101.858 29.6742 101.566 29.6742C100.538 29.6742 99.9778 30.1172 99.883 31.003H98.4558C98.4936 30.513 98.6437 30.0889 98.908 29.7308C99.1723 29.3632 99.5296 29.0805 99.9827 28.8826C100.445 28.6847 100.972 28.5858 101.566 28.5858C102.141 28.5858 102.649 28.6989 103.093 28.925C103.535 29.1418 103.884 29.4481 104.138 29.8439C104.393 30.2303 104.52 30.6779 104.52 31.1868V33.7312ZM103.601 32.8972C103.601 33.4909 103.479 34.0186 103.234 34.4804C102.989 34.9421 102.649 35.3096 102.215 35.5829C101.783 35.8468 101.293 35.9787 100.746 35.9787C100.293 35.9787 99.8878 35.8892 99.5296 35.7102C99.1723 35.5311 98.8935 35.2813 98.696 34.961C98.4984 34.6311 98.3987 34.2542 98.3987 33.8301C98.3987 33.2364 98.5778 32.7652 98.9361 32.4166C99.304 32.0679 99.8171 31.8747 100.477 31.837L102.399 31.7239C102.672 31.705 102.866 31.6438 102.979 31.5401C103.101 31.4364 103.163 31.281 103.163 31.0737V32.6286L100.972 32.7558C100.19 32.8124 99.7987 33.1375 99.7987 33.7312C99.7987 34.061 99.9256 34.3249 100.18 34.5228C100.435 34.7207 100.774 34.8196 101.198 34.8196C101.575 34.8196 101.909 34.7348 102.202 34.5652C102.503 34.3955 102.739 34.1646 102.909 33.8725C103.078 33.5709 103.163 33.2317 103.163 32.8548L103.601 32.8972ZM105.698 28.7554H109.544V29.9004H105.698V28.7554ZM109.544 34.6217V35.8232H108.85C108.502 35.8232 108.181 35.7573 107.889 35.6253C107.598 35.484 107.366 35.272 107.197 34.9892C107.027 34.7065 106.942 34.3343 106.942 33.8725V26.9178H108.299V33.6888C108.299 34.0563 108.365 34.306 108.497 34.438C108.629 34.5604 108.799 34.6217 109.006 34.6217H109.544ZM110.561 32.2611C110.561 31.5166 110.703 30.871 110.985 30.3245C111.268 29.7684 111.663 29.3397 112.172 29.0381C112.69 28.7271 113.289 28.5717 113.967 28.5717C114.646 28.5717 115.24 28.7271 115.749 29.0381C116.257 29.3397 116.653 29.7684 116.936 30.3245C117.228 30.871 117.374 31.5166 117.374 32.2611C117.374 33.0055 117.228 33.6557 116.936 34.2118C116.653 34.7678 116.257 35.2013 115.749 35.5123C115.24 35.8232 114.646 35.9787 113.967 35.9787C113.289 35.9787 112.69 35.8232 112.172 35.5123C111.663 35.2013 111.268 34.7678 110.985 34.2118C110.703 33.6557 110.561 33.0055 110.561 32.2611ZM115.961 32.2611C115.961 31.4789 115.787 30.871 115.438 30.4376C115.088 30.0041 114.599 29.7873 113.967 29.7873C113.336 29.7873 112.846 30.0041 112.498 30.4376C112.149 30.871 111.975 31.4789 111.975 32.2611C111.975 33.0527 112.149 33.6699 112.498 34.1128C112.846 34.5463 113.336 34.7631 113.967 34.7631C114.599 34.7631 115.088 34.5463 115.438 34.1128C115.787 33.6699 115.961 33.0527 115.961 32.2611ZM122.37 30.0418H122.003C121.645 30.0418 121.315 30.1124 121.014 30.2538C120.721 30.3952 120.485 30.5931 120.307 30.8475C120.137 31.1019 120.052 31.3988 120.052 31.738L119.586 31.6532C119.586 31.0219 119.704 30.48 119.939 30.0276C120.184 29.5753 120.49 29.2266 120.858 28.9816C121.235 28.7365 121.612 28.6141 121.989 28.6141H122.37V30.0418ZM118.681 28.7554H120.052V35.8232H118.681V28.7554ZM126.398 28.7554H127.769V38.1274H126.398V28.7554ZM127.246 32.2611C127.246 31.5166 127.363 30.871 127.6 30.3245C127.844 29.7684 128.183 29.3397 128.617 29.0381C129.051 28.7271 129.554 28.5717 130.129 28.5717C130.733 28.5717 131.26 28.7271 131.712 29.0381C132.174 29.3397 132.532 29.7684 132.787 30.3245C133.042 30.871 133.169 31.5166 133.169 32.2611C133.169 33.0055 133.042 33.6557 132.787 34.2118C132.532 34.7678 132.174 35.2013 131.712 35.5123C131.26 35.8232 130.733 35.9787 130.129 35.9787C129.554 35.9787 129.051 35.8232 128.617 35.5123C128.183 35.2013 127.844 34.7678 127.6 34.2118C127.363 33.6557 127.246 33.0055 127.246 32.2611ZM131.755 32.2611C131.755 31.4789 131.581 30.871 131.232 30.4376C130.884 30.0041 130.394 29.7873 129.761 29.7873C129.13 29.7873 128.64 30.0041 128.292 30.4376C127.943 30.871 127.769 31.4789 127.769 32.2611C127.769 33.0527 127.943 33.6699 128.292 34.1128C128.64 34.5463 129.13 34.7631 129.761 34.7631C130.394 34.7631 130.884 34.5463 131.232 34.1128C131.581 33.6699 131.755 33.0527 131.755 32.2611ZM134.374 26.4654H135.943V27.8225H134.374V26.4654ZM134.473 28.7554H135.845V35.8232H134.473V28.7554ZM137.006 28.7554H140.851V29.9004H137.006V28.7554ZM140.851 34.6217V35.8232H140.159C139.81 35.8232 139.49 35.7573 139.198 35.6253C138.905 35.484 138.675 35.272 138.505 34.9892C138.335 34.7065 138.251 34.3343 138.251 33.8725V26.9178H139.607V33.6888C139.607 34.0563 139.674 34.306 139.806 34.438C139.937 34.5604 140.107 34.6217 140.314 34.6217H140.851ZM141.869 32.2611C141.869 31.5166 142.01 30.871 142.293 30.3245C142.576 29.7684 142.972 29.3397 143.481 29.0381C143.989 28.7271 144.583 28.5717 145.261 28.5717C145.874 28.5717 146.42 28.6895 146.901 28.925C147.382 29.1606 147.768 29.4952 148.06 29.9287C148.353 30.3527 148.522 30.8616 148.57 31.4553H147.156C147.137 30.9182 146.958 30.5082 146.619 30.2255C146.279 29.9334 145.827 29.7873 145.261 29.7873C144.63 29.7873 144.14 30.0041 143.792 30.4376C143.452 30.871 143.282 31.4789 143.282 32.2611C143.282 33.0527 143.457 33.6699 143.805 34.1128C144.155 34.5463 144.64 34.7631 145.261 34.7631C145.818 34.7631 146.265 34.6311 146.604 34.3673C146.944 34.1034 147.127 33.7218 147.156 33.2223H148.57C148.484 34.0798 148.141 34.7537 147.538 35.2437C146.944 35.7337 146.185 35.9787 145.261 35.9787C144.583 35.9787 143.989 35.8232 143.481 35.5123C142.972 35.2013 142.576 34.7678 142.293 34.2118C142.01 33.6557 141.869 33.0055 141.869 32.2611ZM154.714 31.625C154.714 31.003 154.558 30.5506 154.247 30.2679C153.945 29.9852 153.531 29.8439 153.003 29.8439C152.673 29.8439 152.372 29.9193 152.099 30.07C151.834 30.2114 151.622 30.4093 151.463 30.6637C151.312 30.9182 151.236 31.2103 151.236 31.5401L150.769 31.4553C150.779 30.8522 150.92 30.3386 151.193 29.9145C151.467 29.4811 151.806 29.1512 152.212 28.925C152.626 28.6895 153.05 28.5717 153.484 28.5717C154.237 28.5717 154.86 28.812 155.35 29.2926C155.84 29.7638 156.085 30.447 156.085 31.3422V35.8232H154.714V31.625ZM149.865 25.9283H151.236V35.8232H149.865V25.9283ZM157.428 34.2401H158.996V35.8232L158.347 37.8729H157.342L158.36 35.8232H157.428V34.2401ZM163.031 32.2611C163.031 31.5166 163.172 30.871 163.455 30.3245C163.737 29.7684 164.133 29.3397 164.643 29.0381C165.161 28.7271 165.759 28.5717 166.438 28.5717C167.116 28.5717 167.71 28.7271 168.219 29.0381C168.727 29.3397 169.123 29.7684 169.406 30.3245C169.699 30.871 169.845 31.5166 169.845 32.2611C169.845 33.0055 169.699 33.6557 169.406 34.2118C169.123 34.7678 168.727 35.2013 168.219 35.5123C167.71 35.8232 167.116 35.9787 166.438 35.9787C165.759 35.9787 165.161 35.8232 164.643 35.5123C164.133 35.2013 163.737 34.7678 163.455 34.2118C163.172 33.6557 163.031 33.0055 163.031 32.2611ZM168.431 32.2611C168.431 31.4789 168.257 30.871 167.907 30.4376C167.559 30.0041 167.069 29.7873 166.438 29.7873C165.806 29.7873 165.317 30.0041 164.968 30.4376C164.619 30.871 164.444 31.4789 164.444 32.2611C164.444 33.0527 164.619 33.6699 164.968 34.1128C165.317 34.5463 165.806 34.7631 166.438 34.7631C167.069 34.7631 167.559 34.5463 167.907 34.1128C168.257 33.6699 168.431 33.0527 168.431 32.2611ZM176.014 31.6391C176.014 31.0077 175.858 30.5506 175.547 30.2679C175.237 29.9852 174.822 29.8439 174.303 29.8439C173.974 29.8439 173.672 29.9193 173.399 30.07C173.135 30.2114 172.923 30.4093 172.763 30.6637C172.602 30.9182 172.523 31.215 172.523 31.5543L172.071 31.4695C172.079 30.8664 172.216 30.348 172.48 29.9145C172.753 29.4811 173.097 29.1512 173.512 28.925C173.927 28.6895 174.346 28.5717 174.77 28.5717C175.534 28.5717 176.16 28.812 176.65 29.2926C177.14 29.7732 177.385 30.4611 177.385 31.3564V35.8232H176.014V31.6391ZM171.165 28.7554H172.523V35.8232H171.165V28.7554ZM181.36 28.7554H185.205V29.9004H181.36V28.7554ZM185.205 34.6217V35.8232H184.512C184.163 35.8232 183.843 35.7573 183.551 35.6253C183.259 35.484 183.028 35.272 182.858 34.9892C182.689 34.7065 182.604 34.3343 182.604 33.8725V26.9178H183.961V33.6888C183.961 34.0563 184.027 34.306 184.159 34.438C184.291 34.5604 184.461 34.6217 184.668 34.6217H185.205ZM191.212 31.625C191.212 31.003 191.057 30.5506 190.746 30.2679C190.444 29.9852 190.03 29.8439 189.502 29.8439C189.172 29.8439 188.871 29.9193 188.597 30.07C188.333 30.2114 188.121 30.4093 187.961 30.6637C187.811 30.9182 187.735 31.2103 187.735 31.5401L187.268 31.4553C187.278 30.8522 187.419 30.3386 187.693 29.9145C187.966 29.4811 188.305 29.1512 188.71 28.925C189.124 28.6895 189.549 28.5717 189.982 28.5717C190.737 28.5717 191.358 28.812 191.848 29.2926C192.339 29.7638 192.584 30.447 192.584 31.3422V35.8232H191.212V31.625ZM186.364 25.9283H187.735V35.8232H186.364V25.9283ZM193.884 32.2611C193.884 31.5071 194.021 30.8616 194.294 30.3245C194.567 29.7779 194.953 29.3585 195.453 29.0664C195.962 28.7648 196.56 28.6141 197.249 28.6141C197.918 28.6141 198.506 28.7696 199.016 29.0805C199.524 29.3821 199.925 29.8015 200.217 30.3386C200.518 30.8758 200.669 31.493 200.669 32.1904V32.6286H195.17V31.625H199.199C199.142 31.0406 198.94 30.5742 198.592 30.2255C198.242 29.8769 197.8 29.7025 197.262 29.7025C196.621 29.7025 196.131 29.9145 195.792 30.3386C195.462 30.7533 195.298 31.394 195.298 32.2611C195.298 33.0903 195.472 33.7218 195.821 34.1552C196.169 34.5793 196.678 34.7913 197.347 34.7913C197.847 34.7913 198.247 34.6783 198.549 34.4521C198.86 34.2259 199.052 33.9197 199.128 33.5333H200.584C200.443 34.3249 200.094 34.9233 199.538 35.3285C198.991 35.7337 198.257 35.9363 197.333 35.9363C196.626 35.9363 196.013 35.7902 195.495 35.4981C194.987 35.1965 194.591 34.7725 194.308 34.2259C194.025 33.6699 193.884 33.015 193.884 32.2611ZM204.651 32.2611C204.651 31.5071 204.788 30.8616 205.061 30.3245C205.334 29.7779 205.721 29.3585 206.22 29.0664C206.729 28.7648 207.328 28.6141 208.016 28.6141C208.685 28.6141 209.274 28.7696 209.783 29.0805C210.291 29.3821 210.692 29.8015 210.984 30.3386C211.286 30.8758 211.437 31.493 211.437 32.1904V32.6286H205.937V31.625H209.966C209.91 31.0406 209.707 30.5742 209.359 30.2255C209.009 29.8769 208.567 29.7025 208.029 29.7025C207.389 29.7025 206.899 29.9145 206.56 30.3386C206.23 30.7533 206.065 31.394 206.065 32.2611C206.065 33.0903 206.239 33.7218 206.588 34.1552C206.936 34.5793 207.446 34.7913 208.115 34.7913C208.614 34.7913 209.014 34.6783 209.316 34.4521C209.627 34.2259 209.821 33.9197 209.895 33.5333H211.351C211.21 34.3249 210.861 34.9233 210.306 35.3285C209.759 35.7337 209.024 35.9363 208.1 35.9363C207.393 35.9363 206.781 35.7902 206.263 35.4981C205.754 35.1965 205.358 34.7725 205.076 34.2259C204.793 33.6699 204.651 33.015 204.651 32.2611ZM212.73 25.9283H214.101V35.8232H212.73V25.9283ZM215.405 32.2611C215.405 31.5071 215.542 30.8616 215.815 30.3245C216.088 29.7779 216.474 29.3585 216.974 29.0664C217.483 28.7648 218.081 28.6141 218.769 28.6141C219.439 28.6141 220.027 28.7696 220.536 29.0805C221.045 29.3821 221.446 29.8015 221.737 30.3386C222.039 30.8758 222.19 31.493 222.19 32.1904V32.6286H216.691V31.625H220.72C220.663 31.0406 220.461 30.5742 220.112 30.2255C219.763 29.8769 219.321 29.7025 218.783 29.7025C218.142 29.7025 217.652 29.9145 217.313 30.3386C216.983 30.7533 216.819 31.394 216.819 32.2611C216.819 33.0903 216.993 33.7218 217.342 34.1552C217.69 34.5793 218.199 34.7913 218.868 34.7913C219.368 34.7913 219.768 34.6783 220.07 34.4521C220.381 34.2259 220.573 33.9197 220.649 33.5333H222.105C221.964 34.3249 221.615 34.9233 221.059 35.3285C220.512 35.7337 219.778 35.9363 218.854 35.9363C218.147 35.9363 217.534 35.7902 217.016 35.4981C216.507 35.1965 216.112 34.7725 215.829 34.2259C215.547 33.6699 215.405 33.015 215.405 32.2611ZM223.215 28.7554H224.671L226.678 34.4238L228.629 28.7554H230.1L227.442 35.8232H225.872L223.215 28.7554ZM237.249 33.7312C237.249 34.1646 237.268 34.5652 237.305 34.9327C237.352 35.2908 237.413 35.5877 237.489 35.8232H236.09C236.024 35.5782 235.972 35.305 235.934 35.0034C235.906 34.6924 235.891 34.3673 235.891 34.028V31.0454C235.891 30.791 235.817 30.56 235.666 30.3527C235.524 30.1455 235.331 29.9805 235.086 29.858C234.85 29.7355 234.586 29.6742 234.295 29.6742C233.267 29.6742 232.707 30.1172 232.612 31.003H231.185C231.223 30.513 231.373 30.0889 231.637 29.7308C231.9 29.3632 232.259 29.0805 232.711 28.8826C233.173 28.6847 233.7 28.5858 234.295 28.5858C234.869 28.5858 235.378 28.6989 235.821 28.925C236.264 29.1418 236.613 29.4481 236.867 29.8439C237.122 30.2303 237.249 30.6779 237.249 31.1868V33.7312ZM236.33 32.8972C236.33 33.4909 236.208 34.0186 235.962 34.4804C235.717 34.9421 235.378 35.3096 234.944 35.5829C234.512 35.8468 234.021 35.9787 233.475 35.9787C233.022 35.9787 232.617 35.8892 232.259 35.7102C231.9 35.5311 231.622 35.2813 231.425 34.961C231.226 34.6311 231.128 34.2542 231.128 33.8301C231.128 33.2364 231.307 32.7652 231.665 32.4166C232.033 32.0679 232.546 31.8747 233.205 31.837L235.128 31.7239C235.401 31.705 235.595 31.6438 235.708 31.5401C235.83 31.4364 235.891 31.281 235.891 31.0737V32.6286L233.7 32.7558C232.919 32.8124 232.528 33.1375 232.528 33.7312C232.528 34.061 232.655 34.3249 232.909 34.5228C233.164 34.7207 233.503 34.8196 233.927 34.8196C234.303 34.8196 234.638 34.7348 234.931 34.5652C235.232 34.3955 235.467 34.1646 235.638 33.8725C235.807 33.5709 235.891 33.2317 235.891 32.8548L236.33 32.8972ZM238.427 28.7554H242.272V29.9004H238.427V28.7554ZM242.272 34.6217V35.8232H241.579C241.231 35.8232 240.91 35.7573 240.618 35.6253C240.327 35.484 240.095 35.272 239.926 34.9892C239.756 34.7065 239.671 34.3343 239.671 33.8725V26.9178H241.028V33.6888C241.028 34.0563 241.094 34.306 241.226 34.438C241.358 34.5604 241.528 34.6217 241.735 34.6217H242.272ZM243.289 32.2611C243.289 31.5166 243.431 30.871 243.713 30.3245C243.996 29.7684 244.392 29.3397 244.901 29.0381C245.419 28.7271 246.018 28.5717 246.696 28.5717C247.375 28.5717 247.969 28.7271 248.478 29.0381C248.986 29.3397 249.382 29.7684 249.665 30.3245C249.957 30.871 250.103 31.5166 250.103 32.2611C250.103 33.0055 249.957 33.6557 249.665 34.2118C249.382 34.7678 248.986 35.2013 248.478 35.5123C247.969 35.8232 247.375 35.9787 246.696 35.9787C246.018 35.9787 245.419 35.8232 244.901 35.5123C244.392 35.2013 243.996 34.7678 243.713 34.2118C243.431 33.6557 243.289 33.0055 243.289 32.2611ZM248.69 32.2611C248.69 31.4789 248.516 30.871 248.166 30.4376C247.817 30.0041 247.328 29.7873 246.696 29.7873C246.065 29.7873 245.575 30.0041 245.227 30.4376C244.877 30.871 244.703 31.4789 244.703 32.2611C244.703 33.0527 244.877 33.6699 245.227 34.1128C245.575 34.5463 246.065 34.7631 246.696 34.7631C247.328 34.7631 247.817 34.5463 248.166 34.1128C248.516 33.6699 248.69 33.0527 248.69 32.2611ZM255.099 30.0418H254.731C254.374 30.0418 254.044 30.1124 253.742 30.2538C253.45 30.3952 253.214 30.5931 253.035 30.8475C252.866 31.1019 252.781 31.3988 252.781 31.738L252.315 31.6532C252.315 31.0219 252.432 30.48 252.668 30.0276C252.913 29.5753 253.219 29.2266 253.587 28.9816C253.964 28.7365 254.34 28.6141 254.718 28.6141H255.099V30.0418ZM251.409 28.7554H252.781V35.8232H251.409V28.7554Z" fill="var(--fill-0, white)"/>
<path id="Vector_10" fill-rule="evenodd" clip-rule="evenodd" d="M59.7054 22.8333H53.5736V32.0311H59.7054V22.8333ZM55.1065 30.4981V24.3662H58.1725V30.4981H55.1065Z" fill="var(--fill-0, white)"/>
<path id="Vector_11" d="M52.0405 30.4982V33.5642H61.2384V30.4982H62.7713V35.0971H57.4059V38.1631H55.8729V35.0971H50.5075V30.4982H52.0405Z" fill="var(--fill-0, white)"/>
<path id="Vector_12" fill-rule="evenodd" clip-rule="evenodd" d="M52.7667 79.8762C52.7667 75.8658 56.0178 72.6147 60.0281 72.6147C64.0385 72.6147 67.2896 75.8658 67.2896 79.8762V82.2966H69.7101V91.9786H62.9327V82.2966H65.3532V79.8762C65.3532 76.9352 62.9691 74.5511 60.0281 74.5511C57.0872 74.5511 54.7031 76.9352 54.7031 79.8762V82.2966H57.1236V91.9786H50.3462V82.2966H52.7667V79.8762ZM52.2826 84.233V90.0422H55.1872V84.233H52.2826ZM64.8691 90.0422V84.233H67.7737V90.0422H64.8691Z" fill="var(--fill-0, #373737)"/>
<path id="Vector_13" fill-rule="evenodd" clip-rule="evenodd" d="M66.8055 137.382V130.593L56.1554 131.776V143.619C55.7152 143.41 55.2228 143.293 54.7031 143.293C52.8315 143.293 51.3144 144.81 51.3144 146.682C51.3144 148.553 52.8315 150.07 54.7031 150.07C56.5746 150.07 58.0918 148.553 58.0918 146.682V138.35L66.8055 137.382ZM56.1554 146.682C56.1554 145.88 55.5051 145.229 54.7031 145.229C53.901 145.229 53.2508 145.88 53.2508 146.682C53.2508 147.483 53.901 148.134 54.7031 148.134C55.5051 148.134 56.1554 147.483 56.1554 146.682ZM64.8691 135.649L58.0918 136.402V133.509L64.8691 132.756V135.649Z" fill="var(--fill-0, #373737)"/>
<path id="Vector_14" fill-rule="evenodd" clip-rule="evenodd" d="M61.601 185.07V192.671H67.2462L56.518 206.081V198.48H50.8728L61.601 185.07ZM54.9017 196.544H58.4543V200.561L63.2173 194.607H59.6646V190.59L54.9017 196.544Z" fill="var(--fill-0, #373737)"/>
</g>
<defs>
<filter id="filter0_ddi_1691_2324" x="-12.3571" y="69.9396" width="409.088" height="140.898" filterUnits="userSpaceOnUse" color-interpolation-filters="sRGB">
<feFlood flood-opacity="0" result="BackgroundImageFix"/>
<feColorMatrix in="SourceAlpha" type="matrix" values="0 0 0 0 0 0 0 0 0 0 0 0 0 0 0 0 0 0 127 0" result="hardAlpha"/>
<feOffset dy="1.11701"/>
<feGaussianBlur stdDeviation="1.11701"/>
<feComposite in2="hardAlpha" operator="out"/>
<feColorMatrix type="matrix" values="0 0 0 0 0 0 0 0 0 0 0 0 0 0 0 0 0 0 0.05 0"/>
<feBlend mode="normal" in2="BackgroundImageFix" result="effect1_dropShadow_1691_2324"/>
<feColorMatrix in="SourceAlpha" type="matrix" values="0 0 0 0 0 0 0 0 0 0 0 0 0 0 0 0 0 0 127 0" result="hardAlpha"/>
<feOffset dy="1.11701"/>
<feGaussianBlur stdDeviation="1.67552"/>
<feComposite in2="hardAlpha" operator="out"/>
<feColorMatrix type="matrix" values="0 0 0 0 0 0 0 0 0 0 0 0 0 0 0 0 0 0 0.05 0"/>
<feBlend mode="normal" in2="effect1_dropShadow_1691_2324" result="effect2_dropShadow_1691_2324"/>
<feBlend mode="normal" in="SourceGraphic" in2="effect2_dropShadow_1691_2324" result="shape"/>
<feColorMatrix in="SourceAlpha" type="matrix" values="0 0 0 0 0 0 0 0 0 0 0 0 0 0 0 0 0 0 127 0" result="hardAlpha"/>
<feOffset/>
<feGaussianBlur stdDeviation="1.93639"/>
<feComposite in2="hardAlpha" operator="arithmetic" k2="-1" k3="1"/>
<feColorMatrix type="matrix" values="0 0 0 0 0.988235 0 0 0 0 0.988235 0 0 0 0 0.988235 0 0 0 0.06 0"/>
<feBlend mode="normal" in2="shape" result="effect3_innerShadow_1691_2324"/>
</filter>
<filter id="filter1_ddi_1691_2324" x="-12.3571" y="125.127" width="370.36" height="140.898" filterUnits="userSpaceOnUse" color-interpolation-filters="sRGB">
<feFlood flood-opacity="0" result="BackgroundImageFix"/>
<feColorMatrix in="SourceAlpha" type="matrix" values="0 0 0 0 0 0 0 0 0 0 0 0 0 0 0 0 0 0 127 0" result="hardAlpha"/>
<feOffset dy="1.11701"/>
<feGaussianBlur stdDeviation="1.11701"/>
<feComposite in2="hardAlpha" operator="out"/>
<feColorMatrix type="matrix" values="0 0 0 0 0 0 0 0 0 0 0 0 0 0 0 0 0 0 0.05 0"/>
<feBlend mode="normal" in2="BackgroundImageFix" result="effect1_dropShadow_1691_2324"/>
<feColorMatrix in="SourceAlpha" type="matrix" values="0 0 0 0 0 0 0 0 0 0 0 0 0 0 0 0 0 0 127 0" result="hardAlpha"/>
<feOffset dy="1.11701"/>
<feGaussianBlur stdDeviation="1.67552"/>
<feComposite in2="hardAlpha" operator="out"/>
<feColorMatrix type="matrix" values="0 0 0 0 0 0 0 0 0 0 0 0 0 0 0 0 0 0 0.05 0"/>
<feBlend mode="normal" in2="effect1_dropShadow_1691_2324" result="effect2_dropShadow_1691_2324"/>
<feBlend mode="normal" in="SourceGraphic" in2="effect2_dropShadow_1691_2324" result="shape"/>
<feColorMatrix in="SourceAlpha" type="matrix" values="0 0 0 0 0 0 0 0 0 0 0 0 0 0 0 0 0 0 127 0" result="hardAlpha"/>
<feOffset/>
<feGaussianBlur stdDeviation="1.93639"/>
<feComposite in2="hardAlpha" operator="arithmetic" k2="-1" k3="1"/>
<feColorMatrix type="matrix" values="0 0 0 0 0.988235 0 0 0 0 0.988235 0 0 0 0 0.988235 0 0 0 0.06 0"/>
<feBlend mode="normal" in2="shape" result="effect3_innerShadow_1691_2324"/>
</filter>
<filter id="filter2_ddi_1691_2324" x="-12.3571" y="14.7524" width="320.014" height="140.898" filterUnits="userSpaceOnUse" color-interpolation-filters="sRGB">
<feFlood flood-opacity="0" result="BackgroundImageFix"/>
<feColorMatrix in="SourceAlpha" type="matrix" values="0 0 0 0 0 0 0 0 0 0 0 0 0 0 0 0 0 0 127 0" result="hardAlpha"/>
<feOffset dy="1.11701"/>
<feGaussianBlur stdDeviation="1.11701"/>
<feComposite in2="hardAlpha" operator="out"/>
<feColorMatrix type="matrix" values="0 0 0 0 0 0 0 0 0 0 0 0 0 0 0 0 0 0 0.05 0"/>
<feBlend mode="normal" in2="BackgroundImageFix" result="effect1_dropShadow_1691_2324"/>
<feColorMatrix in="SourceAlpha" type="matrix" values="0 0 0 0 0 0 0 0 0 0 0 0 0 0 0 0 0 0 127 0" result="hardAlpha"/>
<feOffset dy="1.11701"/>
<feGaussianBlur stdDeviation="1.67552"/>
<feComposite in2="hardAlpha" operator="out"/>
<feColorMatrix type="matrix" values="0 0 0 0 0 0 0 0 0 0 0 0 0 0 0 0 0 0 0.05 0"/>
<feBlend mode="normal" in2="effect1_dropShadow_1691_2324" result="effect2_dropShadow_1691_2324"/>
<feBlend mode="normal" in="SourceGraphic" in2="effect2_dropShadow_1691_2324" result="shape"/>
<feColorMatrix in="SourceAlpha" type="matrix" values="0 0 0 0 0 0 0 0 0 0 0 0 0 0 0 0 0 0 127 0" result="hardAlpha"/>
<feOffset/>
<feGaussianBlur stdDeviation="1.93639"/>
<feComposite in2="hardAlpha" operator="arithmetic" k2="-1" k3="1"/>
<feColorMatrix type="matrix" values="0 0 0 0 0.988235 0 0 0 0 0.988235 0 0 0 0 0.988235 0 0 0 0.06 0"/>
<feBlend mode="normal" in2="shape" result="effect3_innerShadow_1691_2324"/>
</filter>
<radialGradient id="paint0_radial_1691_2324" cx="0" cy="0" r="1" gradientUnits="userSpaceOnUse" gradientTransform="translate(192.187 30.0141) rotate(-2.02684) scale(155.911 155.911)">
<stop stop-color="#35C5FF"/>
<stop offset="0.353946" stop-color="#3552BF"/>
<stop offset="0.685184" stop-color="#C051EF"/>
<stop offset="0.854243" stop-color="#FF3576"/>
<stop offset="1" stop-color="#F5DDAA"/>
</radialGradient>
<linearGradient id="paint1_linear_1691_2324" x1="192.187" y1="119.088" x2="192.187" y2="161.689" gradientUnits="userSpaceOnUse">
<stop stop-color="#0A0A0A"/>
<stop offset="1" stop-opacity="0.7"/>
</linearGradient>
<linearGradient id="paint2_linear_1691_2324" x1="172.823" y1="174.275" x2="172.823" y2="216.876" gradientUnits="userSpaceOnUse">
<stop stop-color="#0A0A0A"/>
<stop offset="1" stop-opacity="0.7"/>
</linearGradient>
<linearGradient id="paint3_linear_1691_2324" x1="147.65" y1="63.9009" x2="147.65" y2="106.502" gradientUnits="userSpaceOnUse">
<stop stop-color="#0A0A0A"/>
<stop offset="1" stop-opacity="0.7"/>
</linearGradient>
</defs>
</svg>
