<svg preserveAspectRatio="none" width="100%" height="100%" overflow="visible" style="display: block;" viewBox="0 0 15.0011 11.5001" fill="none" xmlns="http://www.w3.org/2000/svg">
<path id="Vector" d="M5.9999 6.24982C5.9999 6.39816 5.95591 6.54316 5.8735 6.6665C5.79109 6.78984 5.67396 6.88597 5.53691 6.94273C5.39987 6.9995 5.24907 7.01435 5.10358 6.98541C4.95809 6.95647 4.82446 6.88504 4.71957 6.78015C4.61468 6.67526 4.54325 6.54163 4.51431 6.39614C4.48537 6.25066 4.50022 6.09986 4.55699 5.96281C4.61375 5.82577 4.70988 5.70863 4.83322 5.62622C4.95656 5.54381 5.10156 5.49982 5.2499 5.49982C5.44881 5.49982 5.63958 5.57884 5.78023 5.71949C5.92088 5.86015 5.9999 6.05091 5.9999 6.24982ZM9.7499 5.49982C9.60156 5.49982 9.45656 5.54381 9.33322 5.62622C9.20988 5.70863 9.11375 5.82577 9.05699 5.96281C9.00022 6.09986 8.98537 6.25066 9.01431 6.39614C9.04325 6.54163 9.11468 6.67526 9.21957 6.78015C9.32446 6.88504 9.45809 6.95647 9.60358 6.98541C9.74907 7.01435 9.89987 6.9995 10.0369 6.94273C10.174 6.88597 10.2911 6.78984 10.3735 6.6665C10.4559 6.54316 10.4999 6.39816 10.4999 6.24982C10.4999 6.05091 10.4209 5.86015 10.2802 5.71949C10.1396 5.57884 9.94881 5.49982 9.7499 5.49982ZM14.403 9.55607L10.2155 11.4129C10.0896 11.4689 9.95358 11.4986 9.81579 11.5C9.67801 11.5015 9.54137 11.4748 9.41429 11.4215C9.28721 11.3683 9.17236 11.2896 9.07681 11.1903C8.98125 11.091 8.90701 10.9732 8.85865 10.8442L8.35177 9.4692C8.07177 9.48795 7.78781 9.49753 7.4999 9.49795C7.21198 9.49837 6.92802 9.48878 6.64802 9.4692L6.14115 10.8442C6.09271 10.9732 6.01842 11.0909 5.92286 11.1901C5.82729 11.2893 5.71245 11.368 5.58539 11.4213C5.45834 11.4745 5.32174 11.5013 5.18398 11.4998C5.04621 11.4984 4.9102 11.4688 4.78427 11.4129L0.596773 9.55607C0.38064 9.46157 0.205079 9.29341 0.101376 9.08154C-0.00232779 8.86967 -0.0274368 8.62786 0.0305231 8.3992L1.8749 1.12482C1.92357 0.935641 2.02636 0.764759 2.17067 0.633103C2.31498 0.501447 2.49455 0.41473 2.6874 0.383574L4.94115 0.0129486C5.1896 -0.0270126 5.44404 0.0268629 5.65497 0.164097C5.86591 0.301331 6.01826 0.512113 6.0824 0.755449L6.28615 1.55795C6.68323 1.5192 7.08781 1.49982 7.4999 1.49982C7.91198 1.49982 8.31615 1.5192 8.7124 1.55795L8.91615 0.755449C8.98016 0.512038 9.13249 0.30117 9.34346 0.163914C9.55442 0.0266576 9.80893 -0.0271579 10.0574 0.0129486L12.3124 0.383574C12.5052 0.41473 12.6848 0.501447 12.8291 0.633103C12.9734 0.764759 13.0762 0.935641 13.1249 1.12482L14.9705 8.39857C15.0286 8.62747 15.0034 8.86954 14.8994 9.08157C14.7954 9.2936 14.6195 9.46178 14.403 9.55607ZM13.9999 8.64232L12.1543 1.37482C12.1543 1.37482 12.1543 1.37482 12.1493 1.37482L9.89552 0.999824C9.89391 0.998891 9.89208 0.9984 9.89021 0.9984C9.88835 0.9984 9.88651 0.998891 9.8849 0.999824L9.70802 1.69607C10.0205 1.75482 10.333 1.82482 10.6349 1.90982C10.7539 1.94016 10.8576 2.01324 10.9262 2.11513C10.9948 2.21702 11.0234 2.34059 11.0068 2.46227C10.9901 2.58395 10.9292 2.69523 10.8357 2.77489C10.7422 2.85455 10.6227 2.89702 10.4999 2.8942C10.4543 2.89407 10.4088 2.88776 10.3649 2.87545C9.43112 2.62206 8.46744 2.49572 7.4999 2.49982C6.53239 2.49551 5.56871 2.62165 4.6349 2.87482C4.57111 2.89454 4.50401 2.90129 4.43757 2.89466C4.37113 2.88803 4.3067 2.86816 4.24806 2.83622C4.18942 2.80429 4.13778 2.76093 4.09617 2.70871C4.05456 2.65649 4.02383 2.59647 4.0058 2.53218C3.98777 2.46789 3.98279 2.40064 3.99117 2.3344C3.99955 2.26816 4.02111 2.20426 4.05458 2.14649C4.08805 2.08872 4.13275 2.03823 4.18605 1.99801C4.23934 1.95779 4.30016 1.92866 4.3649 1.91232C4.66615 1.82732 4.97615 1.75732 5.29115 1.69857L5.11427 0.999824C5.11427 0.999824 5.11427 0.999824 5.10677 0.999824L2.85052 1.37045C2.84868 1.36994 2.84674 1.36994 2.8449 1.37045L0.999898 8.64545L5.1874 10.4998C5.18951 10.501 5.19187 10.5016 5.19427 10.5016C5.19667 10.5016 5.19904 10.501 5.20115 10.4998L5.6249 9.35732C5.20033 9.29238 4.78 9.20222 4.36615 9.08732C4.24288 9.04794 4.13968 8.96229 4.07826 8.84839C4.01683 8.7345 4.00195 8.60122 4.03675 8.47658C4.07155 8.35194 4.15332 8.24565 4.26487 8.18005C4.37642 8.11445 4.50906 8.09465 4.6349 8.12482C5.56865 8.3783 6.53237 8.50444 7.4999 8.49982C8.46743 8.50444 9.43115 8.3783 10.3649 8.12482C10.4926 8.08902 10.6293 8.10542 10.745 8.17041C10.8606 8.2354 10.9457 8.34367 10.9815 8.47139C11.0173 8.5991 11.0009 8.73581 10.9359 8.85144C10.8709 8.96707 10.7626 9.05214 10.6349 9.08795C10.2206 9.20268 9.79987 9.29263 9.3749 9.35732L9.79677 10.4998C9.79879 10.5009 9.80104 10.5015 9.80334 10.5015C9.80563 10.5015 9.80788 10.5009 9.8099 10.4998L13.9999 8.64232Z" fill="var(--fill-0, white)"/>
</svg>
