<svg preserveAspectRatio="none" width="100%" height="100%" overflow="visible" style="display: block;" viewBox="0 0 32 32" fill="none" xmlns="http://www.w3.org/2000/svg">
<g id="Frame">
<path id="Vector" d="M29.3333 22.6667C29.3333 23.3739 29.0524 24.0522 28.5523 24.5523C28.0522 25.0524 27.3739 25.3333 26.6667 25.3333H9.104C8.39681 25.3335 7.71865 25.6145 7.21867 26.1147L4.28267 29.0507C4.15027 29.183 3.9816 29.2732 3.79799 29.3097C3.61437 29.3462 3.42404 29.3275 3.25108 29.2558C3.07811 29.1842 2.93027 29.0629 2.82625 28.9072C2.72222 28.7516 2.66669 28.5685 2.66667 28.3813V6.66667C2.66667 5.95942 2.94762 5.28115 3.44772 4.78105C3.94781 4.28095 4.62609 4 5.33333 4H26.6667C27.3739 4 28.0522 4.28095 28.5523 4.78105C29.0524 5.28115 29.3333 5.95942 29.3333 6.66667V22.6667Z" stroke="url(#paint0_linear_1574_14549)" stroke-width="2.66667" stroke-linecap="round" stroke-linejoin="round"/>
</g>
<defs>
<linearGradient id="paint0_linear_1574_14549" x1="16" y1="4" x2="16" y2="29.3279" gradientUnits="userSpaceOnUse">
<stop offset="0.432692" stop-color="#5DCD89"/>
<stop offset="1" stop-color="#35C5FF"/>
</linearGradient>
</defs>
</svg>
