<svg preserveAspectRatio="none" width="100%" height="100%" overflow="visible" style="display: block;" viewBox="0 0 10.5 10.5" fill="none" xmlns="http://www.w3.org/2000/svg">
<g id="SVG">
<path id="Vector" fill-rule="evenodd" clip-rule="evenodd" d="M2.1875 4.9585C2.38825 4.9585 2.56325 5.09512 2.61194 5.28989L2.89827 6.4352L4.04361 6.72156C4.23837 6.77027 4.375 6.94521 4.375 7.146C4.375 7.34678 4.23837 7.52172 4.04361 7.57043L2.89827 7.85679L2.61194 9.0021C2.56325 9.19688 2.38825 9.3335 2.1875 9.3335C1.98675 9.3335 1.81175 9.19688 1.76306 9.0021L1.47673 7.85679L0.331392 7.57043C0.136628 7.52172 0 7.34678 0 7.146C0 6.94521 0.136628 6.77027 0.331392 6.72156L1.47673 6.4352L1.76306 5.28989C1.81175 5.09512 1.98675 4.9585 2.1875 4.9585Z" fill="var(--fill-0, #18E299)"/>
<path id="Vector_2" fill-rule="evenodd" clip-rule="evenodd" d="M5.97917 0C6.15866 0 6.32001 0.109667 6.38598 0.276605L7.14292 2.19045L9.05672 2.94733C9.22367 3.01335 9.33333 3.17465 9.33333 3.35417C9.33333 3.53369 9.22367 3.69499 9.05672 3.76101L7.14292 4.51788L6.38598 6.43172C6.32001 6.59867 6.15866 6.70833 5.97917 6.70833C5.79968 6.70833 5.63833 6.59867 5.57235 6.43172L4.81545 4.51788L2.90161 3.76101C2.73467 3.69499 2.625 3.53369 2.625 3.35417C2.625 3.17465 2.73467 3.01335 2.90161 2.94733L4.81545 2.19045L5.57235 0.276605C5.63833 0.109667 5.79968 0 5.97917 0Z" fill="var(--fill-0, #18E299)"/>
</g>
</svg>
