<svg preserveAspectRatio="none" width="100%" height="100%" overflow="visible" style="display: block;" viewBox="0 0 26 26" fill="none" xmlns="http://www.w3.org/2000/svg">
<g id="SVG">
<path id="Vector" d="M23.6502 7.7155L4.42648 0.596372C3.32311 0.188497 2.11411 0.450122 1.28211 1.28375C0.448489 2.11738 0.186864 3.31988 0.596364 4.42488L7.71548 23.6486C8.15423 24.8316 9.24948 25.5938 10.5105 25.5938H10.5267C11.791 25.5873 12.8862 24.8138 13.3152 23.6226L15.9575 16.2825C16.0111 16.1314 16.1297 16.0111 16.2841 15.9559L23.6242 13.3136C24.8154 12.8846 25.5889 11.7894 25.5954 10.5235C25.6019 9.25763 24.8381 8.15425 23.6519 7.7155H23.6502Z" fill="url(#paint0_linear_1574_14529)"/>
</g>
<defs>
<linearGradient id="paint0_linear_1574_14529" x1="13.0007" y1="25.5938" x2="13.0007" y2="0.407155" gradientUnits="userSpaceOnUse">
<stop stop-color="#6EDCD1"/>
<stop offset="1" stop-color="#097FE9"/>
</linearGradient>
</defs>
</svg>
