<svg preserveAspectRatio="none" width="100%" height="100%" overflow="visible" style="display: block;" viewBox="0 0 12 12" fill="none" xmlns="http://www.w3.org/2000/svg">
<g id="SVG">
<path id="Vector" d="M1.73662 8.77827C2.46022 7.1438 4.09429 6 5.99983 6C7.84211 6 9.43064 7.06913 10.188 8.61713C10.2374 8.71827 10.2858 8.82173 10.3196 8.92627C10.5764 9.72033 10.1206 10.5701 9.32477 10.8209C8.46984 11.0903 7.33797 11.3333 5.99983 11.3333C4.66172 11.3333 3.52985 11.0903 2.67489 10.8209C1.82933 10.5545 1.36758 9.6124 1.73662 8.77827Z" fill="var(--fill-0, #08090A)"/>
<path id="Vector_2" d="M6.00004 5.00057C7.19684 5.00057 8.16671 4.03053 8.16671 2.8339C8.16671 1.63727 7.19684 0.667236 6.00004 0.667236C4.80325 0.667236 3.83337 1.63727 3.83337 2.8339C3.83337 4.03053 4.80325 5.00057 6.00004 5.00057Z" fill="var(--fill-0, #08090A)"/>
</g>
</svg>
