<svg preserveAspectRatio="none" width="100%" height="100%" overflow="visible" style="display: block;" viewBox="0 0 28 28" fill="none" xmlns="http://www.w3.org/2000/svg">
<g id="Link &#226;&#134;&#146; SVG">
<path id="Vector" d="M14.005 5.55176C11.7092 5.55176 11.4211 5.56179 10.5194 5.60279C9.61939 5.64397 9.0051 5.78635 8.46759 5.99525C7.9116 6.21099 7.43996 6.49961 6.97009 6.96931C6.49987 7.43884 6.21103 7.91012 5.99442 8.46553C5.78483 9.00282 5.64218 9.61682 5.60167 10.5158C5.56134 11.4168 5.55078 11.7049 5.55078 13.999C5.55078 16.2931 5.561 16.5802 5.60185 17.4812C5.64324 18.3805 5.78572 18.9944 5.99458 19.5314C6.21068 20.087 6.49951 20.5583 6.96956 21.0278C7.43927 21.4977 7.91089 21.787 8.46654 22.0028C9.00439 22.2117 9.61886 22.3541 10.5186 22.3952C11.4203 22.4362 11.7083 22.4463 14.0039 22.4463C16.2999 22.4463 16.5872 22.4362 17.4889 22.3952C18.3888 22.3541 19.0039 22.2117 19.5418 22.0027C20.0975 21.787 20.5685 21.4977 21.0382 21.0278C21.5084 20.5583 21.7972 20.087 22.0139 19.5316C22.2216 18.9944 22.3643 18.3803 22.4065 17.4814C22.4471 16.5804 22.4576 16.2931 22.4576 13.999C22.4576 11.7049 22.4471 11.417 22.4065 10.516C22.3643 9.61664 22.2216 9.00282 22.0139 8.46571C21.7972 7.91012 21.5084 7.43883 21.0382 6.96931C20.5679 6.49943 20.0977 6.21082 19.5412 5.99524C19.0022 5.78635 18.3877 5.64397 17.4877 5.60279C16.586 5.56179 16.2989 5.55176 14.0024 5.55176H14.005ZM13.2467 7.07402C13.4717 7.07367 13.7229 7.07402 14.005 7.07402C16.2621 7.07402 16.5296 7.08212 17.4209 7.1226C18.2452 7.16026 18.6925 7.29787 18.9904 7.4135C19.385 7.5666 19.6662 7.74962 19.9619 8.04527C20.2578 8.34093 20.4409 8.62251 20.5946 9.01671C20.7102 9.31412 20.8481 9.76112 20.8857 10.5847C20.9261 11.4752 20.935 11.7428 20.935 13.997C20.935 16.2514 20.9261 16.519 20.8857 17.4094C20.8479 18.2331 20.7102 18.68 20.5946 18.9775C20.4413 19.3716 20.2578 19.6524 19.9619 19.9478C19.666 20.2435 19.3851 20.4265 18.9904 20.5796C18.6929 20.6957 18.2452 20.833 17.4209 20.8707C16.5298 20.9111 16.2621 20.9199 14.005 20.9199C11.7477 20.9199 11.4803 20.9111 10.5891 20.8707C9.76483 20.8326 9.31753 20.695 9.01936 20.5795C8.62486 20.4263 8.34308 20.2433 8.04721 19.9476C7.75134 19.652 7.56818 19.3711 7.41461 18.9767C7.2989 18.6793 7.16099 18.2323 7.12349 17.4087C7.08298 16.5182 7.07488 16.2508 7.07488 13.9949C7.07488 11.7392 7.08298 11.4731 7.12349 10.5826C7.16118 9.759 7.2989 9.31201 7.41461 9.01425C7.56782 8.62005 7.75134 8.33847 8.04721 8.04282C8.34308 7.74716 8.62486 7.56414 9.01936 7.41069C9.31735 7.29453 9.76483 7.15727 10.5891 7.11942C11.3689 7.08423 11.6711 7.07367 13.2467 7.07191V7.07402ZM18.5174 8.47662C17.9573 8.47662 17.503 8.93013 17.503 9.48993C17.503 10.0495 17.9573 10.5036 18.5174 10.5036C19.0774 10.5036 19.5318 10.0495 19.5318 9.48993C19.5318 8.93031 19.0774 8.47662 18.5174 8.47662ZM14.005 9.661C11.6075 9.661 9.66374 11.6033 9.66374 13.999C9.66374 16.3947 11.6075 18.3362 14.005 18.3362C16.4025 18.3362 18.3456 16.3947 18.3456 13.999C18.3456 11.6033 16.4025 9.661 14.005 9.661ZM14.005 11.1832C15.5611 11.1832 16.8229 12.4438 16.8229 13.999C16.8229 15.554 15.5611 16.8147 14.005 16.8147C12.4487 16.8147 11.1871 15.554 11.1871 13.999C11.1871 12.4438 12.4487 11.1832 14.005 11.1832Z" fill="var(--fill-0, white)"/>
</g>
</svg>
