<svg preserveAspectRatio="none" width="100%" height="100%" overflow="visible" style="display: block;" viewBox="0 0 109.836 16" fill="none" xmlns="http://www.w3.org/2000/svg">
<g id="Frame 46">
<path id="Union" d="M7.76172 0.432617C8.9581 0.432617 10.0684 0.662774 11.0918 1.12402C12.1152 1.58529 12.9731 2.24134 13.665 3.0918L11.9785 4.77832C11.5317 4.14412 10.9331 3.66161 10.1836 3.33008C9.43404 2.98413 8.62659 2.81055 7.76172 2.81055C6.72398 2.81058 5.80835 3.0417 5.01562 3.50293C4.23749 3.94973 3.63255 4.5768 3.2002 5.38379C2.7678 6.19093 2.55082 7.12778 2.55078 8.19434C2.55078 9.261 2.76776 10.2057 3.2002 11.0273C3.64698 11.8343 4.24481 12.4685 4.99414 12.9297C5.74369 13.3909 6.59455 13.6221 7.5459 13.6221C8.55485 13.6221 9.41994 13.4414 10.1406 13.0811C10.8756 12.7063 11.438 12.1581 11.8271 11.4375C12.0711 10.9766 12.2381 10.4505 12.3291 9.85938H7.50293V7.58887H12.7568V7.56738H15.0264V15.8916H12.7568V14.1221C12.3514 14.5145 11.8977 14.8453 11.3945 15.1133C10.2846 15.7043 9.0159 16 7.58887 16C6.55108 16 5.57092 15.7981 4.64844 15.3945C3.72593 14.9909 2.91844 14.4358 2.22656 13.7295C1.53481 13.0088 0.987536 12.18 0.583984 11.2432C0.194794 10.2918 0 9.27542 0 8.19434C3.36277e-05 7.11343 0.19488 6.10477 0.583984 5.16797C0.987524 4.23118 1.53483 3.40936 2.22656 2.70312C2.93279 1.98249 3.75461 1.42727 4.69141 1.03809C5.64269 0.634513 6.66632 0.432648 7.76172 0.432617ZM29.9678 5.18945C30.7605 5.18945 31.4601 5.36212 32.0654 5.70801C32.4858 5.93283 32.8455 6.21836 33.1465 6.5625V5.40527H35.5254V15.7842H33.1465V14.6416C32.8542 14.9831 32.502 15.2713 32.0869 15.5029C31.4672 15.8344 30.7604 16 29.9678 16C29.031 15.9999 28.1808 15.7617 27.417 15.2861C26.6675 14.8105 26.0689 14.1695 25.6221 13.3623C25.1896 12.5407 24.9736 11.6252 24.9736 10.6162C24.9736 9.5928 25.1896 8.67732 25.6221 7.87012C26.0689 7.04856 26.6675 6.40047 27.417 5.9248C28.1808 5.4348 29.031 5.18954 29.9678 5.18945ZM48.0674 15.7842H45.6885V14.6416C45.3963 14.983 45.0448 15.2713 44.6299 15.5029C44.0101 15.8344 43.3034 16 42.5107 16C41.5738 16 40.7229 15.7618 39.959 15.2861C39.2097 14.8105 38.6118 14.1693 38.165 13.3623C37.7326 12.5407 37.5156 11.6252 37.5156 10.6162C37.5156 9.5928 37.7326 8.67732 38.165 7.87012C38.6118 7.04877 39.2097 6.4004 39.959 5.9248C40.7229 5.43471 41.5738 5.18945 42.5107 5.18945C43.3033 5.18949 44.0022 5.36223 44.6074 5.70801C45.0277 5.9328 45.3875 6.21842 45.6885 6.5625V0.21582H48.0674V15.7842ZM60.4658 5.18945C61.4315 5.18945 62.2825 5.41256 63.0176 5.85938C63.7671 6.30618 64.3505 6.91899 64.7686 7.69727C65.2009 8.47556 65.4179 9.36199 65.418 10.3564C65.418 10.5294 65.4029 10.7101 65.374 10.8975C65.3596 11.0704 65.3313 11.2653 65.2881 11.4814H57.5459C57.6106 11.7516 57.7042 12.0043 57.8281 12.2383C58.0875 12.7282 58.4552 13.11 58.9307 13.3838C59.4063 13.6432 59.9545 13.7734 60.5742 13.7734C61.1076 13.7734 61.5981 13.6796 62.0449 13.4922C62.5061 13.3048 62.8948 13.0303 63.2119 12.6699L64.7256 14.2051C64.2211 14.7961 63.6084 15.2432 62.8877 15.5459C62.167 15.8486 61.4029 16 60.5957 16C59.5581 16 58.6211 15.7698 57.7852 15.3086C56.9635 14.8329 56.3075 14.1839 55.8174 13.3623C55.3417 12.5407 55.1045 11.6181 55.1045 10.5947C55.1045 9.57134 55.3417 8.65582 55.8174 7.84863C56.2931 7.02701 56.935 6.37802 57.7422 5.90234C58.5636 5.42687 59.4715 5.18953 60.4658 5.18945ZM104.387 5.18945C105.41 5.18945 106.333 5.42675 107.154 5.90234C107.976 6.37802 108.625 7.02701 109.101 7.84863C109.591 8.65582 109.836 9.56427 109.836 10.5732C109.836 11.5822 109.591 12.4978 109.101 13.3193C108.625 14.1408 107.976 14.7961 107.154 15.2861C106.333 15.7618 105.41 16 104.387 16C103.378 16 102.462 15.7618 101.641 15.2861C100.819 14.7961 100.163 14.1408 99.6729 13.3193C99.1972 12.4978 98.96 11.5822 98.96 10.5732C98.96 9.5643 99.1972 8.6558 99.6729 7.84863C100.163 7.04154 100.819 6.40046 101.641 5.9248C102.462 5.43473 103.378 5.18947 104.387 5.18945ZM22.2148 5.18945C22.7338 5.18945 23.2031 5.28332 23.6211 5.4707C24.0388 5.65806 24.428 5.96026 24.7881 6.37793L23.2314 7.97852C23.0441 7.77673 22.8351 7.63239 22.6045 7.5459C22.3739 7.45944 22.1073 7.41604 21.8047 7.41602C21.1417 7.41602 20.5935 7.62504 20.1611 8.04297C19.7287 8.46097 19.5127 9.11709 19.5127 10.0107V15.7842H17.1338V5.40527H19.5127V6.48438C19.527 6.46349 19.541 6.44243 19.5557 6.42188C20.1466 5.60034 21.033 5.18954 22.2148 5.18945ZM53.1064 15.7842H50.7285V5.40527H53.1064V15.7842ZM72.7949 5.18945C73.5731 5.18952 74.2648 5.39139 74.8701 5.79492C75.4755 6.1841 75.9509 6.69587 76.2969 7.33008C76.6427 7.94977 76.8164 8.59806 76.8164 9.27539V15.7842H74.4375V9.79492C74.4375 9.10316 74.2143 8.53372 73.7676 8.08691C73.3352 7.64008 72.7729 7.41603 72.0811 7.41602C71.6198 7.41602 71.209 7.517 70.8486 7.71875C70.4883 7.92055 70.2067 8.20214 70.0049 8.5625C69.8032 8.92276 69.7021 9.33384 69.7021 9.79492V15.7842H67.3242V5.40527H69.7021V6.58008C69.9863 6.2388 70.3246 5.9547 70.7188 5.72949C71.3386 5.36915 72.031 5.18945 72.7949 5.18945ZM92.7998 2.22656C92.1081 2.22659 91.5891 2.4286 91.2432 2.83203C90.8972 3.22122 90.7246 3.69053 90.7246 4.23828V5.40527H94.6162V0.21582H96.9941V15.7842H94.6162V7.56738H90.7246V15.7842H88.3457V7.56738H83.0635V15.7842H80.6846V7.56738H78.1621V5.40527H80.6846V1.08105H83.0635V5.40527H88.3457V4.25977C88.3457 3.51021 88.5264 2.81076 88.8867 2.16211C89.2471 1.51354 89.7589 0.994626 90.4219 0.605469C91.0993 0.201965 91.8918 2.30133e-05 92.7998 0V2.22656ZM30.3574 7.4375C29.7809 7.4375 29.2691 7.57476 28.8223 7.84863C28.3899 8.10809 28.0436 8.47552 27.7842 8.95117C27.5391 9.42685 27.417 9.97491 27.417 10.5947C27.417 11.2145 27.5391 11.7626 27.7842 12.2383C28.0436 12.7139 28.3899 13.0885 28.8223 13.3623C29.2691 13.6218 29.7809 13.751 30.3574 13.751C31.2367 13.751 31.9432 13.4562 32.4766 12.8652C33.0243 12.2743 33.2978 11.5172 33.2979 10.5947C33.2979 9.97491 33.1757 9.42685 32.9307 8.95117C32.6856 8.47553 32.3394 8.10808 31.8926 7.84863C31.4601 7.57477 30.9484 7.4375 30.3574 7.4375ZM42.8994 7.4375C42.323 7.43755 41.811 7.5748 41.3643 7.84863C40.932 8.10803 40.5865 8.47573 40.3271 8.95117C40.0821 9.42685 39.959 9.97491 39.959 10.5947C39.959 11.2145 40.0821 11.7626 40.3271 12.2383C40.5865 12.7137 40.9321 13.0885 41.3643 13.3623C41.811 13.6217 42.323 13.7509 42.8994 13.751C43.4903 13.751 44.0022 13.6217 44.4346 13.3623C44.8813 13.0885 45.2276 12.7138 45.4727 12.2383C45.7177 11.7626 45.8398 11.2145 45.8398 10.5947C45.8398 9.97491 45.7177 9.42685 45.4727 8.95117C45.2276 8.47558 44.8814 8.10806 44.4346 7.84863C44.0022 7.57485 43.4903 7.4375 42.8994 7.4375ZM104.387 7.48145C103.81 7.48146 103.291 7.61781 102.83 7.8916C102.383 8.15102 102.03 8.5115 101.771 8.97266C101.525 9.43392 101.403 9.96784 101.403 10.5732C101.403 11.1784 101.526 11.7188 101.771 12.1943C102.03 12.67 102.383 13.0455 102.83 13.3193C103.291 13.5787 103.81 13.708 104.387 13.708C104.978 13.708 105.497 13.5787 105.943 13.3193C106.405 13.0455 106.758 12.67 107.003 12.1943C107.262 11.7188 107.393 11.1785 107.393 10.5732C107.393 9.96784 107.262 9.43392 107.003 8.97266C106.743 8.51154 106.39 8.15101 105.943 7.8916C105.497 7.61784 104.978 7.48145 104.387 7.48145ZM60.4229 7.37305C59.8176 7.37307 59.2915 7.50238 58.8447 7.76172C58.3979 8.02118 58.0517 8.38956 57.8066 8.86523C57.6979 9.06994 57.6151 9.29355 57.5547 9.53516H63.0752C63.0129 9.2299 62.9227 8.95591 62.8018 8.71387C62.5856 8.28151 62.2756 7.94938 61.8721 7.71875C61.4829 7.48812 60.9994 7.37305 60.4229 7.37305ZM51.918 0.648438C52.3358 0.648513 52.6742 0.785817 52.9336 1.05957C53.1931 1.33344 53.3232 1.67257 53.3232 2.07617C53.3231 2.47956 53.1929 2.81803 52.9336 3.0918C52.6742 3.36555 52.3358 3.50285 51.918 3.50293C51.5144 3.50293 51.1752 3.36567 50.9014 3.0918C50.6421 2.81805 50.5128 2.47953 50.5127 2.07617C50.5127 1.6726 50.642 1.33343 50.9014 1.05957C51.1752 0.785696 51.5144 0.648438 51.918 0.648438Z" fill="var(--fill-0, white)"/>
</g>
</svg>
