<svg preserveAspectRatio="none" width="100%" height="100%" overflow="visible" style="display: block;" viewBox="0 0 14 11.9009" fill="none" xmlns="http://www.w3.org/2000/svg">
<path id="Vector" d="M13.2527 0.846125C12.5982 0.46025 11.5334 0 10.1728 0H10.171C8.76925 0 7.67638 0.487375 7 0.901252C6.32362 0.487375 5.23075 0 3.82987 0H3.82812C2.4675 0 1.40263 0.46025 0.748125 0.846125C0.279125 1.12175 0 1.6135 0 2.1595V10.1141C0 10.6225 0.251125 11.0967 0.67025 11.3829C1.08412 11.6646 1.60737 11.7241 2.07287 11.5412C2.6355 11.3199 3.22263 11.207 3.82025 11.2061H3.82725C4.88775 11.2061 5.72425 11.5596 6.23963 11.8571C6.27288 11.8764 6.30962 11.8842 6.34375 11.9009V3.4405C6.34375 3.07825 6.63775 2.78425 7 2.78425C7.36225 2.78425 7.65625 3.07825 7.65625 3.4405V11.9009C7.69038 11.8842 7.72713 11.8764 7.76038 11.8571C8.27575 11.5605 9.11138 11.2061 10.1728 11.2061H10.1789C10.7765 11.2061 11.3636 11.3199 11.9271 11.5412C12.39 11.7232 12.9133 11.6637 13.328 11.382C13.7489 11.095 14 10.6199 14 10.1106V2.16388C14 1.62313 13.713 1.11825 13.2527 0.846125Z" fill="var(--fill-0, #18E299)"/>
</svg>
