<svg preserveAspectRatio="none" width="100%" height="100%" overflow="visible" style="display: block;" viewBox="0 0 10.5 8.92565" fill="none" xmlns="http://www.w3.org/2000/svg">
<path id="Vector" d="M9.93956 0.634594C9.44869 0.345188 8.65003 0 7.62956 0H7.62825C6.57694 0 5.75728 0.365532 5.25 0.675939C4.74272 0.365532 3.92306 0 2.87241 0H2.87109C1.85063 0 1.05197 0.345188 0.561094 0.634594C0.209344 0.841314 0 1.21013 0 1.61963V7.58559C0 7.96687 0.188344 8.32256 0.502687 8.53715C0.813094 8.74846 1.20553 8.79309 1.55466 8.65593C1.97662 8.4899 2.41697 8.40525 2.86519 8.40459H2.87044C3.66581 8.40459 4.29319 8.66971 4.67972 8.89284C4.70466 8.90728 4.73222 8.91318 4.75781 8.92565V2.58038C4.75781 2.30869 4.97831 2.08819 5.25 2.08819C5.52169 2.08819 5.74219 2.30869 5.74219 2.58038V8.92565C5.76778 8.91318 5.79534 8.90728 5.82028 8.89284C6.20681 8.67037 6.83353 8.40459 7.62956 8.40459H7.63416C8.08238 8.40459 8.52272 8.4899 8.94534 8.65593C9.2925 8.79243 9.68494 8.74781 9.996 8.5365C10.3117 8.32125 10.5 7.9649 10.5 7.58296V1.62291C10.5 1.21735 10.2847 0.838689 9.93956 0.634594Z" fill="var(--fill-0, #18E299)"/>
</svg>
