<svg preserveAspectRatio="none" width="100%" height="100%" overflow="visible" style="display: block;" viewBox="0 0 16 16" fill="none" xmlns="http://www.w3.org/2000/svg">
<g id="SVG">
<path id="Vector" d="M2.31571 11.7044C3.28051 9.52507 5.45926 8 7.99998 8C10.4564 8 12.5744 9.42551 13.5842 11.4895C13.6501 11.6244 13.7146 11.7623 13.7597 11.9017C14.1021 12.9604 13.4943 14.0935 12.4332 14.4278C11.2933 14.787 9.78418 15.1111 7.99998 15.1111C6.21584 15.1111 4.70668 14.787 3.56674 14.4278C2.43932 14.0726 1.82365 12.8165 2.31571 11.7044Z" fill="var(--fill-0, #08090A)"/>
<path id="Vector_2" d="M8 6.6671C9.59573 6.6671 10.8889 5.37372 10.8889 3.77821C10.8889 2.1827 9.59573 0.889324 8 0.889324C6.40428 0.889324 5.11111 2.1827 5.11111 3.77821C5.11111 5.37372 6.40428 6.6671 8 6.6671Z" fill="var(--fill-0, #08090A)"/>
</g>
</svg>
