<svg preserveAspectRatio="none" width="100%" height="100%" overflow="visible" style="display: block;" viewBox="0 0 16 18" fill="none" xmlns="http://www.w3.org/2000/svg">
<g id="SVG">
<path id="Vector" d="M6.81184 11.6145H9.37182C9.55315 11.6145 9.70516 11.5532 9.82782 11.4305C9.95049 11.3078 10.0118 11.1558 10.0118 10.9745V9.69452H8.73184V10.3345H7.45184V7.77452H8.73184V8.41452H10.0118V7.13452C10.0118 6.95318 9.95049 6.80118 9.82782 6.67852C9.70516 6.55585 9.55315 6.49452 9.37182 6.49452H6.81184C6.63051 6.49452 6.47851 6.55585 6.35584 6.67852C6.23317 6.80118 6.17184 6.95318 6.17184 7.13452V10.9745C6.17184 11.1558 6.23317 11.3078 6.35584 11.4305C6.47851 11.5532 6.63051 11.6145 6.81184 11.6145ZM8.09184 15.4545C7.20651 15.4545 6.37451 15.2865 5.59584 14.9505C4.81717 14.6145 4.13984 14.1585 3.56384 13.5825C2.98784 13.0065 2.53184 12.3292 2.19584 11.5505C1.85984 10.7718 1.69184 9.93982 1.69184 9.05452C1.69184 8.16918 1.85984 7.33718 2.19584 6.55852C2.53184 5.77985 2.98784 5.10252 3.56384 4.52652C4.13984 3.95052 4.81717 3.49452 5.59584 3.15852C6.37451 2.82252 7.20651 2.65452 8.09184 2.65452C8.97716 2.65452 9.80916 2.82252 10.5878 3.15852C11.3665 3.49452 12.0438 3.95052 12.6198 4.52652C13.1958 5.10252 13.6518 5.77985 13.9878 6.55852C14.3238 7.33718 14.4918 8.16918 14.4918 9.05452C14.4918 9.93982 14.3238 10.7718 13.9878 11.5505C13.6518 12.3292 13.1958 13.0065 12.6198 13.5825C12.0438 14.1585 11.3665 14.6145 10.5878 14.9505C9.80916 15.2865 8.97716 15.4545 8.09184 15.4545ZM8.09184 14.1745C9.52116 14.1745 10.7318 13.6785 11.7238 12.6865C12.7158 11.6945 13.2118 10.4838 13.2118 9.05452C13.2118 7.62518 12.7158 6.41452 11.7238 5.42252C10.7318 4.43052 9.52116 3.93452 8.09184 3.93452C6.66251 3.93452 5.45184 4.43052 4.45984 5.42252C3.46784 6.41452 2.97184 7.62518 2.97184 9.05452C2.97184 10.4838 3.46784 11.6945 4.45984 12.6865C5.45184 13.6785 6.66251 14.1745 8.09184 14.1745Z" fill="var(--fill-0, white)"/>
</g>
</svg>
