<svg preserveAspectRatio="none" width="100%" height="100%" overflow="visible" style="display: block;" viewBox="0 0 28 28" fill="none" xmlns="http://www.w3.org/2000/svg">
<g id="Link &#226;&#134;&#146; SVG">
<path id="Vector" d="M9.41282 11.2345V21.2842H6.06614V11.2345H9.41282ZM9.62578 8.13087C9.6326 8.62458 9.46185 9.03707 9.11353 9.36835C8.76521 9.69962 8.30711 9.8653 7.7392 9.8653H7.71875C7.16447 9.8653 6.71828 9.69962 6.38019 9.36835C6.0421 9.03707 5.87305 8.62458 5.87305 8.13087C5.87305 7.63074 6.04721 7.21655 6.39553 6.88829C6.74384 6.56004 7.19855 6.39611 7.75964 6.39649C8.32073 6.39686 8.77032 6.5608 9.10842 6.88829C9.44651 7.21578 9.61897 7.62998 9.62578 8.13087ZM21.4508 15.5239V21.2842H18.1143V15.9095C18.1143 15.1996 17.9774 14.6434 17.7037 14.241C17.43 13.8385 17.0023 13.6373 16.4208 13.6373C15.9949 13.6373 15.6383 13.7539 15.3508 13.9872C15.0635 14.2204 14.8489 14.5094 14.7068 14.8543C14.6327 15.0573 14.5955 15.331 14.5955 15.6755V21.2836H11.2591C11.2727 18.586 11.2795 16.3989 11.2795 14.722C11.2795 13.0451 11.2761 12.0446 11.2693 11.7201L11.2591 11.2333H14.5955V12.6935H14.5751C14.7103 12.4773 14.8489 12.288 14.9908 12.1256C15.1328 11.9631 15.3238 11.7873 15.5638 11.5979C15.8038 11.4087 16.098 11.2615 16.4464 11.1567C16.7947 11.0518 17.1818 10.9994 17.6077 10.9994C18.764 10.9994 19.6936 11.3831 20.3967 12.1505C21.0998 12.918 21.4513 14.042 21.4513 15.5227L21.4508 15.5239Z" fill="var(--fill-0, white)"/>
</g>
</svg>
