<svg preserveAspectRatio="none" width="100%" height="100%" overflow="visible" style="display: block;" viewBox="0 0 18.924 13.2871" fill="none" xmlns="http://www.w3.org/2000/svg">
<g id="Group">
<path id="Vector" fill-rule="evenodd" clip-rule="evenodd" d="M17.0591 2.46636L17.0594 2.46732C17.2111 3.03502 17.3062 4.03032 17.3559 4.99272C17.3795 5.45112 17.3914 5.86682 17.3974 6.16782C17.4004 6.31812 17.4018 6.43902 17.4025 6.52132C17.4029 6.56252 17.4031 6.59412 17.4032 6.61492L17.4033 6.63782V6.64282V6.64932L17.4032 6.67212C17.4031 6.69292 17.4029 6.72452 17.4025 6.76572C17.4018 6.84812 17.4004 6.96892 17.3974 7.11922C17.3914 7.42022 17.3795 7.83592 17.3559 8.29432C17.3062 9.25672 17.2111 10.252 17.0594 10.8199C16.9814 11.1126 16.7488 11.3447 16.4615 11.4217C16.251 11.4782 15.7408 11.5464 14.9667 11.6031C14.2355 11.6566 13.3818 11.693 12.56 11.7174C11.7406 11.7419 10.9649 11.7541 10.3934 11.7602C10.1078 11.7633 9.87404 11.7648 9.71204 11.7656C9.63104 11.766 9.56794 11.7662 9.52544 11.7663H9.39854C9.35604 11.7662 9.29304 11.766 9.21194 11.7656C9.04994 11.7648 8.81614 11.7633 8.53064 11.7602C7.95904 11.7541 7.18334 11.7419 6.36404 11.7174C5.54214 11.693 4.68851 11.6566 3.9573 11.6031C3.18324 11.5464 2.67366 11.4785 2.46317 11.4219C2.17587 11.3448 1.94283 11.1134 1.86486 10.8208C1.71318 10.2529 1.61779 9.25672 1.5681 8.29442C1.54442 7.83592 1.53252 7.42022 1.52657 7.11922C1.52361 6.96892 1.52213 6.84812 1.52141 6.76572C1.52104 6.72452 1.52087 6.69292 1.52077 6.67212L1.5207 6.64932L1.52069 6.64422L1.5207 6.63782L1.52077 6.61492C1.52087 6.59412 1.52104 6.56252 1.52141 6.52132C1.52213 6.43902 1.52361 6.31812 1.52657 6.16782C1.53252 5.86682 1.54442 5.45112 1.5681 4.99272C1.61779 4.03032 1.71294 3.03502 1.86461 2.46732C1.9426 2.17456 2.17517 1.94248 2.46228 1.86551L2.46325 1.86525C2.67371 1.80868 3.18326 1.74063 3.95733 1.68399C4.68853 1.63048 5.54214 1.59409 6.36404 1.56959C7.18334 1.54518 7.95904 1.53293 8.53064 1.5268C8.81614 1.52374 9.04994 1.52221 9.21194 1.52144C9.29304 1.52107 9.35604 1.52087 9.39854 1.52078H9.52544C9.56794 1.52087 9.63104 1.52107 9.71204 1.52144C9.87404 1.52221 10.1078 1.52374 10.3934 1.5268C10.9649 1.53293 11.7406 1.54518 12.56 1.56959C13.3818 1.59409 14.2354 1.63048 14.9666 1.68399C15.7407 1.74063 16.2503 1.80868 16.4607 1.86525L16.4617 1.86552C16.7488 1.94247 16.9811 2.17353 17.0591 2.46636ZM9.46204 0C9.46204 0 3.54431 -1.19209e-07 2.06852 0.39668C1.25432 0.61496 0.61305 1.25809 0.39544 2.07482C8.9407e-08 3.55512 0 6.64362 0 6.64362C0 6.64362 8.9407e-08 9.73202 0.39544 11.2123C0.61305 12.0289 1.25432 12.672 2.06852 12.8904C3.54431 13.2871 9.46204 13.2871 9.46204 13.2871C9.46204 13.2871 15.3797 13.2871 16.8555 12.8904C17.6697 12.672 18.3109 12.0289 18.5285 11.2123C18.924 9.73202 18.924 6.64362 18.924 6.64362C18.924 6.64362 18.924 3.55512 18.5285 2.07482C18.3109 1.25809 17.6697 0.61496 16.8555 0.39668C15.3797 -1.19209e-07 9.46204 0 9.46204 0Z" fill="var(--fill-0, white)"/>
<path id="Vector_2" d="M7.52734 9.44362L12.4734 6.63972L7.52734 3.83542V9.44362Z" fill="var(--fill-0, white)"/>
</g>
</svg>
