<svg preserveAspectRatio="none" width="100%" height="100%" overflow="visible" style="display: block;" viewBox="0 0 48 48" fill="none" xmlns="http://www.w3.org/2000/svg">
<g id="SVG">
<path id="Vector" fill-rule="evenodd" clip-rule="evenodd" d="M14.6871 7.33346C14.6871 3.65053 17.6708 0.666797 21.3538 0.666797C25.0367 0.666797 28.0204 3.65053 28.0204 7.33346C28.0204 11.0164 25.0367 14.0001 21.3538 14.0001C17.6708 14.0001 14.6871 11.0164 14.6871 7.33346Z" fill="var(--fill-0, #18E299)"/>
<path id="Vector_2" opacity="0.2" d="M27.4645 10.0062C31.1437 11.7028 34.0026 14.8801 35.2749 18.7708C35.6183 19.8206 36.7477 20.3934 37.7975 20.0501C38.8474 19.7068 39.4202 18.5774 39.0767 17.5275C37.3109 12.1274 33.1533 7.81474 27.8525 5.83789C27.9626 6.31896 28.021 6.81989 28.021 7.33448C28.021 8.28466 27.8223 9.18829 27.4645 10.0062Z" fill="var(--fill-0, #18E299)"/>
<path id="Vector_3" fill-rule="evenodd" clip-rule="evenodd" d="M28.5227 31.3335C28.5227 27.6505 31.5064 24.6668 35.1893 24.6668C38.8723 24.6668 41.856 27.6505 41.856 31.3335C41.856 35.0164 38.8723 38.0001 35.1893 38.0001C31.5064 38.0001 28.5227 35.0164 28.5227 31.3335Z" fill="var(--fill-0, #18E299)"/>
<path id="Vector_4" opacity="0.2" d="M29.8277 35.2973C26.5141 37.6474 22.322 38.5386 18.3059 37.6906C17.2251 37.4623 16.164 38.1533 15.9358 39.2341C15.7075 40.3149 16.3986 41.3759 17.4793 41.6042C23.051 42.781 28.8783 41.3317 33.2458 37.713C31.8615 37.2922 30.6685 36.433 29.8277 35.2973Z" fill="var(--fill-0, #18E299)"/>
<path id="Vector_5" fill-rule="evenodd" clip-rule="evenodd" d="M0.851953 31.3335C0.851953 27.6505 3.83565 24.6668 7.51861 24.6668C11.2015 24.6668 14.1853 27.6505 14.1853 31.3335C14.1853 35.0164 11.2015 38.0001 7.51861 38.0001C3.83565 38.0001 0.851953 35.0164 0.851953 31.3335Z" fill="var(--fill-0, #18E299)"/>
<path id="Vector_6" opacity="0.2" d="M10.4101 13.5397C11.1476 12.7175 11.079 11.453 10.2567 10.7155C9.43442 9.97795 8.16997 10.0466 7.43242 10.8689C3.62522 15.1135 1.97155 20.8973 2.93207 26.4939C3.94719 25.5315 5.265 24.8856 6.72818 24.7128C6.34935 20.6702 7.67082 16.5937 10.4101 13.5397Z" fill="var(--fill-0, #18E299)"/>
</g>
</svg>
