<svg preserveAspectRatio="none" width="100%" height="100%" overflow="visible" style="display: block;" viewBox="0 0 79.2686 77.3318" fill="none" xmlns="http://www.w3.org/2000/svg">
<path id="Vector" d="M79.2686 39.6343C79.2686 48.2699 76.7484 56.0368 71.7081 62.9349C66.6678 69.8331 60.1567 74.6067 52.1748 77.2559C51.2459 77.4279 50.5664 77.3075 50.1363 76.8947C49.7063 76.4818 49.4913 75.9657 49.4913 75.3464V64.4573C49.4913 61.1201 48.5967 58.6773 46.8077 57.1291C48.7688 56.9227 50.532 56.613 52.0974 56.2002C53.6628 55.7873 55.2799 55.1164 56.9485 54.1875C58.6171 53.2586 60.0105 52.1146 61.1287 50.7556C62.2468 49.3966 63.1585 47.5904 63.8638 45.3369C64.5691 43.0834 64.9218 40.4944 64.9218 37.57C64.9218 33.407 63.5628 29.8633 60.8448 26.9389C62.1178 23.8081 61.9802 20.2988 60.432 16.4111C59.4686 16.1014 58.0752 16.2907 56.2518 16.9788C54.4283 17.6668 52.8457 18.4238 51.5039 19.2495L49.5429 20.488C46.3432 19.5935 43.0404 19.1463 39.6343 19.1463C36.2282 19.1463 32.9254 19.5935 29.7257 20.488C29.1752 20.1096 28.4441 19.6451 27.5324 19.0946C26.6207 18.5442 25.1843 17.8819 23.2232 17.1078C21.2621 16.3337 19.7827 16.1014 18.785 16.4111C17.2712 20.2988 17.1508 23.8081 18.4238 26.9389C15.7058 29.8633 14.3468 33.407 14.3468 37.57C14.3468 40.4944 14.6994 43.0748 15.4047 45.3111C16.11 47.5474 17.0132 49.3536 18.1141 50.7298C19.2151 52.106 20.5999 53.2586 22.2685 54.1875C23.9371 55.1164 25.5541 55.7873 27.1196 56.2002C28.685 56.613 30.4482 56.9227 32.4093 57.1291C31.0331 58.3677 30.1902 60.1395 29.8805 62.4447C29.158 62.7887 28.3839 63.0467 27.5582 63.2188C26.7325 63.3908 25.752 63.4768 24.6166 63.4768C23.4813 63.4768 22.3545 63.1069 21.2363 62.3672C20.1182 61.6275 19.1635 60.5524 18.3721 59.1418C17.7185 58.0408 16.8841 57.1463 15.8692 56.4582C14.8543 55.7701 14.0027 55.3573 13.3146 55.2197L12.2825 55.0648C11.56 55.0648 11.0611 55.1422 10.7859 55.2971C10.5107 55.4519 10.4246 55.6497 10.5279 55.8905C10.6311 56.1314 10.7859 56.3722 10.9923 56.613C11.1988 56.8539 11.4224 57.0603 11.6632 57.2323L12.0245 57.4904C12.7814 57.8344 13.5297 58.4881 14.2694 59.4514C15.0091 60.4148 15.551 61.2921 15.895 62.0834L16.4111 63.2704C16.8583 64.5777 17.6152 65.6357 18.6818 66.4442C19.7483 67.2527 20.9009 67.7688 22.1395 67.9924C23.378 68.2161 24.5736 68.3365 25.7262 68.3537C26.8787 68.3709 27.8335 68.3107 28.5904 68.173L29.7773 67.9666C29.7773 69.274 29.7859 70.805 29.8031 72.5597C29.8203 74.3143 29.8289 75.2432 29.8289 75.3464C29.8289 75.9657 29.6053 76.4818 29.158 76.8947C28.7108 77.3075 28.0227 77.4279 27.0938 77.2559C19.1118 74.6067 12.6007 69.8331 7.56045 62.9349C2.52015 56.0368 0 48.2699 0 39.6343C0 32.4437 1.77185 25.8122 5.31554 19.7397C8.85923 13.6673 13.6673 8.85923 19.7397 5.31554C25.8122 1.77185 32.4437 0 39.6343 0C46.8249 0 53.4564 1.77185 59.5288 5.31554C65.6013 8.85923 70.4093 13.6673 73.953 19.7397C77.4967 25.8122 79.2686 32.4437 79.2686 39.6343Z" fill="var(--fill-0, white)"/>
</svg>
