<svg preserveAspectRatio="none" width="100%" height="100%" overflow="visible" style="display: block;" viewBox="0 0 32 32" fill="none" xmlns="http://www.w3.org/2000/svg">
<g id="Frame">
<path id="Vector" d="M26.6667 17.3339C26.6667 24.0006 22 27.3339 16.4533 29.2673C16.1629 29.3657 15.8474 29.361 15.56 29.2539C10 27.3339 5.33333 24.0006 5.33333 17.3339V8.0006C5.33333 7.64698 5.47381 7.30784 5.72386 7.05779C5.97391 6.80774 6.31304 6.66727 6.66667 6.66727C9.33333 6.66727 12.6667 5.06727 14.9867 3.0406C15.2691 2.79926 15.6285 2.66667 16 2.66667C16.3715 2.66667 16.7309 2.79926 17.0133 3.0406C19.3467 5.0806 22.6667 6.66727 25.3333 6.66727C25.687 6.66727 26.0261 6.80774 26.2761 7.05779C26.5262 7.30784 26.6667 7.64698 26.6667 8.0006V17.3339Z" stroke="url(#paint0_linear_1574_14481)" stroke-width="2.66667" stroke-linecap="round" stroke-linejoin="round"/>
</g>
<defs>
<linearGradient id="paint0_linear_1574_14481" x1="16" y1="2.66667" x2="16" y2="29.3378" gradientUnits="userSpaceOnUse">
<stop offset="0.432692" stop-color="#5DCD89"/>
<stop offset="1" stop-color="#35C5FF"/>
</linearGradient>
</defs>
</svg>
