<svg preserveAspectRatio="none" width="100%" height="100%" overflow="visible" style="display: block;" viewBox="0 0 10 10" fill="none" xmlns="http://www.w3.org/2000/svg">
<g id="SVG">
<path id="Vector" d="M6.09375 0.3125H2.03125C1.08201 0.3125 0.3125 1.08201 0.3125 2.03125V6.09375C0.3125 7.043 1.08201 7.8125 2.03125 7.8125H6.09375C7.043 7.8125 7.8125 7.043 7.8125 6.09375V2.03125C7.8125 1.08201 7.043 0.3125 6.09375 0.3125Z" fill="var(--fill-0, white)"/>
<path id="Vector_2" d="M9.98106 7.38463L9.37013 3.27176C9.33169 3.01539 9.08813 2.83562 8.83731 2.87719C8.58156 2.915 8.40456 3.15369 8.44244 3.40976L9.05338 7.52231C9.0845 7.72925 9.03263 7.93519 8.90813 8.10275C8.78425 8.27031 8.60231 8.37956 8.39606 8.41006L4.06871 9.05337C3.75071 9.10069 3.44126 8.95081 3.27951 8.671C3.1507 8.44762 2.86264 8.37162 2.63926 8.50069C2.41526 8.63069 2.33896 8.91756 2.46896 9.14156C2.78146 9.68019 3.34421 9.99969 3.95027 9.99969C4.03508 9.99969 4.12058 9.99325 4.20664 9.98044L8.53344 9.33712C8.98756 9.27 9.38856 9.02981 9.662 8.66119C9.93481 8.29225 10.0483 7.83906 9.98106 7.38463Z" fill="var(--fill-0, white)"/>
</g>
</svg>
