<svg preserveAspectRatio="none" width="100%" height="100%" overflow="visible" style="display: block;" viewBox="0 0 24 24" fill="none" xmlns="http://www.w3.org/2000/svg">
<g id="Frame">
<path id="Vector" d="M12 18V5" stroke="var(--stroke-0, white)" stroke-width="2" stroke-linecap="round" stroke-linejoin="round"/>
<path id="Vector_2" d="M15 13C14.1348 12.7471 13.3748 12.2206 12.834 11.4995C12.2932 10.7784 12.0005 9.90141 12 9C11.9995 9.90141 11.7068 10.7784 11.166 11.4995C10.6252 12.2206 9.8652 12.7471 9 13" stroke="var(--stroke-0, white)" stroke-width="2" stroke-linecap="round" stroke-linejoin="round"/>
<path id="Vector_3" d="M17.598 6.5C17.8281 6.10149 17.9635 5.65538 17.9936 5.19619C18.0237 4.73701 17.9478 4.27704 17.7717 3.85189C17.5956 3.42674 17.324 3.0478 16.9781 2.74438C16.6321 2.44096 16.221 2.2212 15.7765 2.10209C15.332 1.98299 14.866 1.96774 14.4147 2.05752C13.9634 2.1473 13.5387 2.3397 13.1737 2.61985C12.8086 2.89999 12.5129 3.26036 12.3093 3.67309C12.1058 4.08581 12 4.53983 12 5C12 4.53983 11.8942 4.08581 11.6907 3.67309C11.4871 3.26036 11.1914 2.89999 10.8263 2.61985C10.4613 2.3397 10.0366 2.1473 9.5853 2.05752C9.13396 1.96774 8.66803 1.98299 8.22353 2.10209C7.77904 2.2212 7.3679 2.44096 7.02193 2.74438C6.67596 3.0478 6.40442 3.42674 6.22833 3.85189C6.05224 4.27704 5.97632 4.73701 6.00643 5.19619C6.03655 5.65538 6.17189 6.10149 6.402 6.5" stroke="var(--stroke-0, white)" stroke-width="2" stroke-linecap="round" stroke-linejoin="round"/>
<path id="Vector_4" d="M17.997 5.125C18.5848 5.27614 19.1305 5.55905 19.5928 5.95231C20.055 6.34557 20.4218 6.83887 20.6652 7.39485C20.9086 7.95082 21.0222 8.55489 20.9976 9.16131C20.973 9.76773 20.8107 10.3606 20.523 10.895" stroke="var(--stroke-0, white)" stroke-width="2" stroke-linecap="round" stroke-linejoin="round"/>
<path id="Vector_5" d="M18 18C18.8805 18 19.7364 17.7094 20.4349 17.1734C21.1335 16.6373 21.6356 15.8858 21.8635 15.0353C22.0914 14.1848 22.0323 13.2829 21.6954 12.4694C21.3585 11.6559 20.7625 10.9763 20 10.536" stroke="var(--stroke-0, white)" stroke-width="2" stroke-linecap="round" stroke-linejoin="round"/>
<path id="Vector_6" d="M19.967 17.483C20.0371 18.0252 19.9953 18.5761 19.8441 19.1015C19.693 19.627 19.4357 20.1158 19.0882 20.538C18.7407 20.9601 18.3104 21.3065 17.8238 21.5558C17.3372 21.805 16.8046 21.9519 16.259 21.9873C15.7134 22.0227 15.1664 21.9459 14.6516 21.7616C14.1369 21.5773 13.6654 21.2894 13.2662 20.9158C12.8671 20.5421 12.5488 20.0906 12.331 19.5891C12.1132 19.0876 12.0006 18.5467 12 18C11.9994 18.5467 11.8868 19.0876 11.669 19.5891C11.4512 20.0906 11.1329 20.5421 10.7338 20.9158C10.3346 21.2894 9.86313 21.5773 9.34839 21.7616C8.83364 21.9459 8.28658 22.0227 7.74098 21.9873C7.19538 21.9519 6.66283 21.805 6.17622 21.5558C5.68961 21.3065 5.25927 20.9601 4.91178 20.538C4.5643 20.1158 4.30703 19.627 4.15589 19.1015C4.00474 18.5761 3.96292 18.0252 4.033 17.483" stroke="var(--stroke-0, white)" stroke-width="2" stroke-linecap="round" stroke-linejoin="round"/>
<path id="Vector_7" d="M6 18C5.1195 18 4.26361 17.7094 3.56507 17.1734C2.86653 16.6373 2.36437 15.8858 2.13648 15.0353C1.90858 14.1848 1.96768 13.2829 2.30462 12.4694C2.64155 11.6559 3.23748 10.9763 4 10.536" stroke="var(--stroke-0, white)" stroke-width="2" stroke-linecap="round" stroke-linejoin="round"/>
<path id="Vector_8" d="M6.003 5.125C5.4152 5.27614 4.8695 5.55905 4.40723 5.95231C3.94496 6.34557 3.57824 6.83887 3.33484 7.39485C3.09145 7.95082 2.97776 8.55489 3.00239 9.16131C3.02702 9.76773 3.18932 10.3606 3.477 10.895" stroke="var(--stroke-0, white)" stroke-width="2" stroke-linecap="round" stroke-linejoin="round"/>
</g>
</svg>
