<svg preserveAspectRatio="none" width="100%" height="100%" overflow="visible" style="display: block;" viewBox="0 0 123.711 18.0213" fill="none" xmlns="http://www.w3.org/2000/svg">
<g id="Group 59">
<g id="Vector">
<path d="M8.54795 18.0213C7.379 18.0213 6.27499 17.794 5.23592 17.3394C4.19685 16.8848 3.28767 16.2598 2.50837 15.4642C1.72907 14.6525 1.11213 13.7189 0.657534 12.6636C0.219178 11.5921 0 10.4475 0 9.22983C0 8.01218 0.219178 6.8757 0.657534 5.8204C1.11213 4.76509 1.72907 3.83967 2.50837 3.04414C3.30391 2.23237 4.22933 1.60731 5.28463 1.16895C6.35616 0.714358 7.50888 0.487062 8.74277 0.487062C10.0903 0.487062 11.3404 0.746829 12.4932 1.26636C13.6459 1.7859 14.6119 2.52461 15.3912 3.4825L13.4916 5.38204C12.9883 4.66768 12.3146 4.12379 11.4703 3.75038C10.6261 3.36073 9.7169 3.16591 8.74277 3.16591C7.57382 3.16591 6.54287 3.42567 5.64992 3.94521C4.77321 4.4485 4.09132 5.15474 3.60426 6.06393C3.1172 6.97311 2.87367 8.02841 2.87367 9.22983C2.87367 10.4313 3.1172 11.4947 3.60426 12.4201C4.10756 13.3293 4.78133 14.0436 5.62557 14.5632C6.46981 15.0827 7.4277 15.3425 8.49924 15.3425C9.63572 15.3425 10.6098 15.1395 11.4216 14.7336C12.2496 14.3115 12.8828 13.6946 13.3212 12.8828C13.7595 12.0548 13.9787 11.0401 13.9787 9.83866L15.7321 11.105H8.45053V8.54795H16.8767V8.9376C16.8767 10.967 16.5114 12.6555 15.7808 14.003C15.0665 15.3506 14.0842 16.3572 12.8341 17.0228C11.584 17.6885 10.1553 18.0213 8.54795 18.0213Z" fill="var(--fill-0, white)"/>
<path d="M19.2989 17.7778V6.08828H21.9777V17.7778H19.2989ZM21.9777 11.2755L21.0523 10.8128C21.0523 9.33536 21.377 8.14206 22.0264 7.23288C22.6921 6.30746 23.6906 5.84475 25.0219 5.84475C25.6064 5.84475 26.134 5.95028 26.6048 6.16134C27.0757 6.3724 27.514 6.71334 27.9199 7.18417L26.1665 8.9863C25.9554 8.759 25.72 8.59665 25.4602 8.49924C25.2005 8.40183 24.9001 8.35312 24.5592 8.35312C23.8123 8.35312 23.1954 8.58853 22.7083 9.05936C22.2213 9.53019 21.9777 10.2689 21.9777 11.2755Z" fill="var(--fill-0, white)"/>
<path d="M33.7544 18.0213C32.6991 18.0213 31.7412 17.7534 30.8807 17.2177C30.0365 16.6819 29.3627 15.9594 28.8594 15.0502C28.3723 14.1248 28.1288 13.0939 28.1288 11.9574C28.1288 10.8047 28.3723 9.77372 28.8594 8.86454C29.3627 7.93912 30.0365 7.20852 30.8807 6.67275C31.7412 6.12075 32.6991 5.84475 33.7544 5.84475C34.6473 5.84475 35.4347 6.03957 36.1166 6.42922C36.8148 6.80264 37.3668 7.32217 37.7726 7.98782C38.1785 8.65347 38.3815 9.40842 38.3815 10.2527V13.6134C38.3815 14.4576 38.1785 15.2126 37.7726 15.8782C37.383 16.5439 36.8391 17.0715 36.141 17.4612C35.4429 17.8346 34.6473 18.0213 33.7544 18.0213ZM34.1927 15.4886C35.1831 15.4886 35.9786 15.1558 36.5793 14.4901C37.1963 13.8245 37.5048 12.9721 37.5048 11.933C37.5048 11.2349 37.3668 10.618 37.0908 10.0822C36.8148 9.54642 36.4251 9.13242 35.9218 8.84018C35.4347 8.53171 34.8584 8.37747 34.1927 8.37747C33.5433 8.37747 32.967 8.53171 32.4637 8.84018C31.9766 9.13242 31.5869 9.54642 31.2947 10.0822C31.0187 10.618 30.8807 11.2349 30.8807 11.933C30.8807 12.6312 31.0187 13.2481 31.2947 13.7839C31.5869 14.3196 31.9766 14.7418 32.4637 15.0502C32.967 15.3425 33.5433 15.4886 34.1927 15.4886ZM37.3343 17.7778V14.6362L37.797 11.7869L37.3343 8.96195V6.08828H40.0131V17.7778H37.3343Z" fill="var(--fill-0, white)"/>
<path d="M47.8811 18.0213C46.8258 18.0213 45.8679 17.7534 45.0074 17.2177C44.1632 16.6819 43.4894 15.9594 42.9861 15.0502C42.499 14.1248 42.2555 13.0939 42.2555 11.9574C42.2555 10.8047 42.499 9.77372 42.9861 8.86454C43.4894 7.93912 44.1632 7.20852 45.0074 6.67275C45.8679 6.12075 46.8258 5.84475 47.8811 5.84475C48.774 5.84475 49.5615 6.03957 50.2433 6.42922C50.9415 6.80264 51.4935 7.32217 51.8994 7.98782C52.3052 8.65347 52.5082 9.40842 52.5082 10.2527V13.6134C52.5082 14.4576 52.3052 15.2126 51.8994 15.8782C51.5097 16.5439 50.9658 17.0715 50.2677 17.4612C49.5696 17.8346 48.774 18.0213 47.8811 18.0213ZM48.3194 15.4886C48.9851 15.4886 49.5615 15.3425 50.0485 15.0502C50.5518 14.7418 50.9415 14.3196 51.2175 13.7839C51.4935 13.2481 51.6315 12.6312 51.6315 11.933C51.6315 11.2349 51.4935 10.618 51.2175 10.0822C50.9415 9.54642 50.5518 9.13242 50.0485 8.84018C49.5615 8.53171 48.9851 8.37747 48.3194 8.37747C47.67 8.37747 47.0937 8.53171 46.5904 8.84018C46.1033 9.13242 45.7137 9.54642 45.4214 10.0822C45.1454 10.618 45.0074 11.2349 45.0074 11.933C45.0074 12.6312 45.1454 13.2481 45.4214 13.7839C45.7137 14.3196 46.1033 14.7418 46.5904 15.0502C47.0937 15.3425 47.67 15.4886 48.3194 15.4886ZM54.1398 17.7778H51.461V14.6362L51.9237 11.7869L51.461 8.96195V0.243531H54.1398V17.7778Z" fill="var(--fill-0, white)"/>
<path d="M57.1372 17.7778V6.08828H59.816V17.7778H57.1372ZM58.4766 3.94521C58.022 3.94521 57.6405 3.79097 57.332 3.4825C57.0398 3.17402 56.8936 2.79249 56.8936 2.3379C56.8936 1.88331 57.0398 1.50177 57.332 1.1933C57.6405 0.884829 58.022 0.730593 58.4766 0.730593C58.9474 0.730593 59.329 0.884829 59.6212 1.1933C59.9134 1.50177 60.0596 1.88331 60.0596 2.3379C60.0596 2.79249 59.9134 3.17402 59.6212 3.4825C59.329 3.79097 58.9474 3.94521 58.4766 3.94521Z" fill="var(--fill-0, white)"/>
<path d="M68.2513 18.0213C67.0824 18.0213 66.0271 17.7615 65.0854 17.242C64.16 16.7062 63.4213 15.9756 62.8693 15.0502C62.3335 14.1248 62.0656 13.0857 62.0656 11.933C62.0656 10.7803 62.3335 9.74937 62.8693 8.84018C63.4051 7.91476 64.1275 7.18417 65.0367 6.6484C65.9621 6.11263 66.985 5.84475 68.1052 5.84475C69.193 5.84475 70.1509 6.0964 70.9789 6.5997C71.8231 7.10299 72.4807 7.793 72.9515 8.66971C73.4385 9.54642 73.6821 10.5449 73.6821 11.6651C73.6821 11.86 73.6658 12.0629 73.6334 12.274C73.6171 12.4688 73.5847 12.688 73.536 12.9315H63.9408V10.7397H72.1478L71.1494 11.6164C71.1169 10.9021 70.9789 10.3014 70.7353 9.81431C70.4918 9.32724 70.1428 8.95383 69.6882 8.69406C69.2498 8.4343 68.7059 8.30441 68.0565 8.30441C67.3746 8.30441 66.782 8.45053 66.2787 8.74277C65.7754 9.03501 65.3858 9.44901 65.1098 9.98478C64.8338 10.5043 64.6958 11.1294 64.6958 11.86C64.6958 12.5906 64.8419 13.2319 65.1341 13.7839C65.4264 14.3359 65.8404 14.7661 66.3761 15.0746C66.9119 15.3668 67.5289 15.5129 68.227 15.5129C68.8277 15.5129 69.3797 15.4074 69.883 15.1963C70.4025 14.9853 70.8409 14.6768 71.1981 14.2709L72.9028 16C72.3345 16.6657 71.6445 17.1689 70.8328 17.5099C70.021 17.8508 69.1605 18.0213 68.2513 18.0213Z" fill="var(--fill-0, white)"/>
<path d="M83.8417 17.7778V11.032C83.8417 10.2527 83.5901 9.61136 83.0868 9.10807C82.5997 8.60477 81.9665 8.35312 81.1872 8.35312C80.6677 8.35312 80.205 8.46677 79.7991 8.69406C79.3932 8.92136 79.0766 9.23795 78.8493 9.64384C78.622 10.0497 78.5084 10.5124 78.5084 11.032L77.4612 10.4475C77.4612 9.55454 77.656 8.76712 78.0457 8.08524C78.4353 7.38711 78.9711 6.84323 79.653 6.45358C80.3511 6.04769 81.1304 5.84475 81.9909 5.84475C82.8676 5.84475 83.6469 6.07204 84.3288 6.52664C85.0107 6.96499 85.5464 7.54135 85.9361 8.25571C86.3257 8.95383 86.5205 9.68442 86.5205 10.4475V17.7778H83.8417ZM75.8295 17.7778V6.08828H78.5084V17.7778H75.8295Z" fill="var(--fill-0, white)"/>
<path d="M90.8778 17.7778V1.21766H93.5567V17.7778H90.8778ZM88.0772 8.52359V6.08828H96.3573V8.52359H88.0772Z" fill="var(--fill-0, white)"/>
<path d="M99.5068 17.7778V4.79756C99.5068 3.95332 99.7098 3.1659 100.116 2.43531C100.522 1.70472 101.098 1.12024 101.845 0.681887C102.608 0.227296 103.501 0 104.524 0V2.50837C103.744 2.50837 103.16 2.73567 102.77 3.19026C102.381 3.62861 102.186 4.15627 102.186 4.77321V17.7778H99.5068ZM96.7062 8.52359V6.08828H107.689V8.52359H96.7062ZM106.569 17.7778V0.243531H109.248V17.7778H106.569Z" fill="var(--fill-0, white)"/>
<path d="M117.574 18.0213C116.438 18.0213 115.407 17.7534 114.481 17.2177C113.556 16.6657 112.817 15.9269 112.265 15.0015C111.729 14.0761 111.462 13.0452 111.462 11.9087C111.462 10.7722 111.729 9.74937 112.265 8.84018C112.817 7.931 113.556 7.20852 114.481 6.67275C115.407 6.12075 116.438 5.84475 117.574 5.84475C118.727 5.84475 119.766 6.11263 120.691 6.6484C121.617 7.18417 122.347 7.91476 122.883 8.84018C123.435 9.74937 123.711 10.7722 123.711 11.9087C123.711 13.0452 123.435 14.0761 122.883 15.0015C122.347 15.9269 121.617 16.6657 120.691 17.2177C119.766 17.7534 118.727 18.0213 117.574 18.0213ZM117.574 15.4399C118.24 15.4399 118.824 15.2938 119.328 15.0015C119.847 14.693 120.245 14.2709 120.521 13.7352C120.813 13.1994 120.959 12.5906 120.959 11.9087C120.959 11.2268 120.813 10.6261 120.521 10.1065C120.229 9.58701 119.831 9.18113 119.328 8.88889C118.824 8.58042 118.24 8.42618 117.574 8.42618C116.925 8.42618 116.34 8.58042 115.821 8.88889C115.317 9.18113 114.92 9.58701 114.627 10.1065C114.351 10.6261 114.213 11.2268 114.213 11.9087C114.213 12.5906 114.351 13.1994 114.627 13.7352C114.92 14.2709 115.317 14.693 115.821 15.0015C116.34 15.2938 116.925 15.4399 117.574 15.4399Z" fill="var(--fill-0, white)"/>
<path d="M14.3683 17.8995V8.52359H16.9254V17.8995H14.3683Z" fill="var(--fill-0, white)"/>
<path d="M88.0365 6.08828H109.224V8.52359H88.0365V6.08828Z" fill="var(--fill-0, white)"/>
</g>
</g>
</svg>
