<svg preserveAspectRatio="none" width="100%" height="100%" overflow="visible" style="display: block;" viewBox="0 0 16 16" fill="none" xmlns="http://www.w3.org/2000/svg">
<g id="SVG">
<path id="Vector" d="M8 0.888889C4.07911 0.888889 0.888889 4.07911 0.888889 8C0.888889 11.9209 4.07911 15.1111 8 15.1111C11.9209 15.1111 15.1111 11.9209 15.1111 8C15.1111 4.07911 11.9209 0.888889 8 0.888889ZM10.2489 8.47111L7.58222 11.1378C7.45244 11.2676 7.28178 11.3333 7.11111 11.3333C6.94044 11.3333 6.76978 11.2684 6.64 11.1378C6.37956 10.8773 6.37956 10.4551 6.64 10.1947L8.83556 7.99911L6.64 5.80356C6.37956 5.54311 6.37956 5.12089 6.64 4.86044C6.90044 4.6 7.32267 4.6 7.58311 4.86044L10.2498 7.52711C10.5102 7.78756 10.5102 8.20978 10.2498 8.47022L10.2489 8.47111Z" fill="var(--fill-0, white)"/>
</g>
</svg>
