<svg preserveAspectRatio="none" width="100%" height="100%" overflow="visible" style="display: block;" viewBox="0 0 7.50012 7.5" fill="none" xmlns="http://www.w3.org/2000/svg">
<g id="SVG">
<path id="Vector" d="M4.57031 0.234375H1.52344C0.811509 0.234375 0.234375 0.811509 0.234375 1.52344V4.57031C0.234375 5.28225 0.811509 5.85938 1.52344 5.85938H4.57031C5.28225 5.85938 5.85938 5.28225 5.85938 4.57031V1.52344C5.85938 0.811509 5.28225 0.234375 4.57031 0.234375Z" fill="var(--fill-0, white)"/>
<path id="Vector_2" d="M7.48596 5.53838L7.02775 2.45374C6.99892 2.26145 6.81625 2.12663 6.62814 2.1578C6.43633 2.18616 6.30358 2.36518 6.33199 2.55723L6.79019 5.64165C6.81353 5.79685 6.77463 5.9513 6.68125 6.07698C6.58835 6.20265 6.45189 6.28459 6.29721 6.30746L3.05169 6.78995C2.81319 6.82543 2.58111 6.71302 2.45979 6.50316C2.36318 6.33563 2.14714 6.27863 1.97961 6.37543C1.81161 6.47293 1.75438 6.68809 1.85188 6.85609C2.08625 7.26005 2.50831 7.49968 2.96286 7.49968C3.02647 7.49968 3.09059 7.49485 3.15514 7.48524L6.40024 7.00276C6.74083 6.95241 7.04158 6.77227 7.24666 6.4958C7.45127 6.2191 7.53635 5.87921 7.48596 5.53838Z" fill="var(--fill-0, white)"/>
</g>
</svg>
