<svg preserveAspectRatio="none" width="100%" height="100%" overflow="visible" style="display: block;" viewBox="0 0 16 16" fill="none" xmlns="http://www.w3.org/2000/svg">
<g id="SVG">
<path id="Vector" fill-rule="evenodd" clip-rule="evenodd" d="M3.33333 7.55556C3.63924 7.55556 3.9059 7.76375 3.9801 8.06053L4.41642 9.80578L6.16169 10.2421C6.45847 10.3164 6.66667 10.5829 6.66667 10.8889C6.66667 11.1948 6.45847 11.4614 6.16169 11.5356L4.41642 11.972L3.9801 13.7172C3.9059 14.014 3.63924 14.2222 3.33333 14.2222C3.02742 14.2222 2.76076 14.014 2.68657 13.7172L2.25025 11.972L0.504978 11.5356C0.208196 11.4614 0 11.1948 0 10.8889C0 10.5829 0.208196 10.3164 0.504978 10.2421L2.25025 9.80578L2.68657 8.06053C2.76076 7.76375 3.02742 7.55556 3.33333 7.55556Z" fill="var(--fill-0, #08090A)"/>
<path id="Vector_2" fill-rule="evenodd" clip-rule="evenodd" d="M9.11111 0C9.38462 0 9.63049 0.167111 9.73102 0.421493L10.8844 3.33783L13.8007 4.49116C14.0551 4.59177 14.2222 4.83756 14.2222 5.11111C14.2222 5.38467 14.0551 5.63045 13.8007 5.73106L10.8844 6.88439L9.73102 9.80071C9.63049 10.0551 9.38462 10.2222 9.11111 10.2222C8.8376 10.2222 8.59173 10.0551 8.4912 9.80071L7.33782 6.88439L4.42149 5.73106C4.16711 5.63045 4 5.38467 4 5.11111C4 4.83756 4.16711 4.59177 4.42149 4.49116L7.33782 3.33783L8.4912 0.421493C8.59173 0.167111 8.8376 0 9.11111 0Z" fill="var(--fill-0, #08090A)"/>
</g>
</svg>
