<svg preserveAspectRatio="none" width="100%" height="100%" overflow="visible" style="display: block;" viewBox="0 0 16.8192 17.1774" fill="none" xmlns="http://www.w3.org/2000/svg">
<g id="Group 9">
<path id="Gradientflo" d="M8.37396 17.1774C7.2288 17.1774 6.14727 16.9547 5.12935 16.5093C4.11143 16.064 3.22075 15.4517 2.45732 14.6723C1.69388 13.8771 1.08949 12.9625 0.644151 11.9287C0.214717 10.879 0 9.75769 0 8.56482C0 7.37195 0.214717 6.2586 0.644151 5.22478C1.08949 4.19096 1.69388 3.28437 2.45732 2.50503C3.23666 1.70978 4.14324 1.09744 5.17706 0.668008C6.22679 0.222669 7.35604 0 8.56482 0C9.88493 0 11.1096 0.254479 12.2389 0.763438C13.3681 1.2724 14.3145 1.99607 15.0779 2.93447L13.217 4.79535C12.724 4.09553 12.0639 3.56271 11.2369 3.1969C10.4098 2.81518 9.51912 2.62432 8.56482 2.62432C7.41966 2.62432 6.4097 2.8788 5.53493 3.38776C4.67606 3.88081 4.00805 4.57268 3.5309 5.46335C3.05375 6.35403 2.81518 7.38785 2.81518 8.56482C2.81518 9.74179 3.05375 10.7836 3.5309 11.6901C4.02395 12.5808 4.68401 13.2806 5.51107 13.7896C6.33813 14.2986 7.27652 14.553 8.32625 14.553C9.43959 14.553 10.3939 14.3542 11.1891 13.9566C12.0003 13.5431 12.6206 12.9387 13.05 12.1434C13.4795 11.3323 13.6942 10.3382 13.6942 9.16126L15.4119 10.4018H8.27853V7.89681H16.5332V8.27853C16.5332 10.2667 16.1753 11.9208 15.4596 13.2409C14.7598 14.561 13.7976 15.5471 12.5729 16.1992C11.3482 16.8513 9.94855 17.1774 8.37396 17.1774Z" fill="var(--fill-0, white)"/>
<rect id="Rectangle 16" x="14.3141" y="17.0579" width="9.18511" height="2.50503" transform="rotate(-90 14.3141 17.0579)" fill="var(--fill-0, white)"/>
</g>
</svg>
